<svg width="80" height="80" viewBox="0 0 80 80" fill="none" xmlns="http://www.w3.org/2000/svg">
<circle cx="40" cy="40" r="40" transform="matrix(1 0 0 -1 0 80)" fill="#757577"/>
<mask id="mask0_1_1548" style="mask-type:alpha" maskUnits="userSpaceOnUse" x="14" y="14" width="52" height="52">
<rect x="14.0547" y="14.0532" width="51.8919" height="51.8919" fill="#D9D9D9"/>
</mask>
<g mask="url(#mask0_1_1548)">
<path d="M37.7302 47.6747L49.9464 35.4585L46.8653 32.3774L37.7302 41.5126L33.1896 36.972L30.1085 40.0531L37.7302 47.6747ZM40.0004 61.6207C34.9914 60.3594 30.8563 57.4855 27.595 52.9991C24.3338 48.5126 22.7031 43.5306 22.7031 38.0531V24.8639L40.0004 18.3774L57.2977 24.8639V38.0531C57.2977 43.5306 55.6671 48.5126 52.4058 52.9991C49.1446 57.4855 45.0094 60.3594 40.0004 61.6207ZM40.0004 57.0801C43.7482 55.891 46.8473 53.5126 49.2977 49.945C51.7482 46.3774 52.9734 42.4135 52.9734 38.0531V27.8369L40.0004 22.972L27.0274 27.8369V38.0531C27.0274 42.4135 28.2527 46.3774 30.7031 49.945C33.1536 53.5126 36.2527 55.891 40.0004 57.0801Z" fill="white"/>
</g>
</svg>
