<svg width="80" height="80" viewBox="0 0 80 80" fill="none" xmlns="http://www.w3.org/2000/svg">
<circle cx="40" cy="40" r="40" transform="matrix(1 0 0 -1 0 80)" fill="#757577"/>
<mask id="mask0_31_33" style="mask-type:alpha" maskUnits="userSpaceOnUse" x="14" y="14" width="52" height="52">
<rect x="14.0527" y="14.0537" width="51.8919" height="51.8919" fill="#D9D9D9"/>
</mask>
<g mask="url(#mask0_31_33)">
<path d="M22.6485 59.4595V52.973H29.3512L23.8377 34.919C22.8647 34.3784 22.0629 33.5856 21.4323 32.5406C20.8016 31.4955 20.4863 30.3784 20.4863 29.1892C20.4863 27.3874 21.117 25.8559 22.3782 24.5946C23.6395 23.3334 25.171 22.7027 26.9728 22.7027C28.3782 22.7027 29.6305 23.1081 30.7296 23.919C31.8287 24.7298 32.5944 25.7658 33.0269 27.0271H39.9458V24.8649C39.9458 24.2523 40.153 23.7388 40.5674 23.3244C40.9818 22.9099 41.4953 22.7027 42.1079 22.7027C42.4323 22.7027 42.7476 22.7748 43.0539 22.919C43.3602 23.0631 43.6215 23.2793 43.8377 23.5676L47.5134 20.1081C47.8377 19.7838 48.2251 19.5766 48.6755 19.4865C49.126 19.3964 49.5674 19.4595 49.9998 19.6757L58.4323 23.5676C58.8647 23.7838 59.162 24.0991 59.3242 24.5135C59.4863 24.928 59.4773 25.3334 59.2971 25.7298C59.0809 26.1622 58.7656 26.4415 58.3512 26.5676C57.9368 26.6937 57.5314 26.6667 57.135 26.4865L49.3512 22.919L44.2701 27.6757V30.7027L49.3512 35.3514L57.135 31.7838C57.5314 31.6036 57.9458 31.5856 58.3782 31.7298C58.8106 31.8739 59.117 32.1442 59.2971 32.5406C59.5134 32.973 59.5314 33.3874 59.3512 33.7838C59.171 34.1802 58.8647 34.4865 58.4323 34.7027L49.9998 38.7027C49.5674 38.919 49.126 38.982 48.6755 38.8919C48.2251 38.8018 47.8377 38.5946 47.5134 38.2703L43.8377 34.8108C43.6215 35.0271 43.3602 35.2253 43.0539 35.4054C42.7476 35.5856 42.4323 35.6757 42.1079 35.6757C41.4953 35.6757 40.9818 35.4685 40.5674 35.0541C40.153 34.6397 39.9458 34.1262 39.9458 33.5135V31.3514H33.0269C32.9188 31.6397 32.8016 31.9099 32.6755 32.1622C32.5494 32.4145 32.3782 32.6847 32.162 32.973L42.9728 52.973H50.7566V59.4595H22.6485ZM26.9728 31.3514C27.5854 31.3514 28.0989 31.1442 28.5134 30.7298C28.9278 30.3154 29.135 29.8018 29.135 29.1892C29.135 28.5766 28.9278 28.0631 28.5134 27.6487C28.0989 27.2343 27.5854 27.0271 26.9728 27.0271C26.3602 27.0271 25.8467 27.2343 25.4323 27.6487C25.0179 28.0631 24.8107 28.5766 24.8107 29.1892C24.8107 29.8018 25.0179 30.3154 25.4323 30.7298C25.8467 31.1442 26.3602 31.3514 26.9728 31.3514ZM33.7836 52.973H37.9998L28.7025 35.6757H28.4863L33.7836 52.973Z" fill="white"/>
</g>
</svg>
