<svg width="106" height="106" viewBox="0 0 106 106" fill="none" xmlns="http://www.w3.org/2000/svg">
<circle cx="53" cy="53" r="53" transform="matrix(1 0 0 -1 0 106)" fill="#08B0AE"/>
<mask id="mask0_31_2" style="mask-type:alpha" maskUnits="userSpaceOnUse" x="18" y="18" width="70" height="71">
<rect x="18" y="18.0005" width="70" height="70" fill="#D9D9D9"/>
</mask>
<g mask="url(#mask0_31_2)">
<path d="M49.9369 63.3548L66.416 46.8757L62.2598 42.7194L49.9369 55.0423L43.8119 48.9173L39.6556 53.0736L49.9369 63.3548ZM52.9994 82.1673C46.2424 80.4659 40.6643 76.5892 36.265 70.5371C31.8657 64.485 29.666 57.7645 29.666 50.3757V32.584L52.9994 23.834L76.3327 32.584V50.3757C76.3327 57.7645 74.133 64.485 69.7337 70.5371C65.3344 76.5892 59.7563 80.4659 52.9994 82.1673ZM52.9994 76.0423C58.0549 74.4382 62.2355 71.2298 65.541 66.4173C68.8466 61.6048 70.4994 56.2576 70.4994 50.3757V36.5944L52.9994 30.0319L35.4994 36.5944V50.3757C35.4994 56.2576 37.1521 61.6048 40.4577 66.4173C43.7632 71.2298 47.9438 74.4382 52.9994 76.0423Z" fill="white"/>
</g>
</svg>
