<svg width="106" height="106" viewBox="0 0 106 106" fill="none" xmlns="http://www.w3.org/2000/svg">
<circle cx="53" cy="53" r="53" transform="matrix(1 0 0 -1 0 106)" fill="#08B0AE"/>
<mask id="mask0_31_13" style="mask-type:alpha" maskUnits="userSpaceOnUse" x="17" y="17" width="71" height="72">
<rect x="17" y="17.0005" width="71" height="71" fill="#D9D9D9"/>
</mask>
<g mask="url(#mask0_31_13)">
<path d="M49.543 70.2515C55.2624 70.2515 60.1437 68.2423 64.1867 64.2239C68.2298 60.2055 70.2513 55.312 70.2513 49.5432C70.2513 43.8238 68.2298 38.9425 64.1867 34.8995C60.1437 30.8564 55.2624 28.8349 49.543 28.8349C43.7742 28.8349 38.8806 30.8564 34.8622 34.8995C30.8438 38.9425 28.8346 43.8238 28.8346 49.5432C28.8346 55.312 30.8438 60.2055 34.8622 64.2239C38.8806 68.2423 43.7742 70.2515 49.543 70.2515ZM49.543 61.3765C45.4506 61.3765 41.8143 60.2795 38.6341 58.0854C35.4539 55.8913 33.1735 53.0439 31.793 49.5432C33.1735 46.0918 35.4539 43.2568 38.6341 41.038C41.8143 38.8193 45.4506 37.7099 49.543 37.7099C53.586 37.7099 57.1977 38.8193 60.3779 41.038C63.5581 43.2568 65.8631 46.0918 67.293 49.5432C65.8631 53.0439 63.5581 55.8913 60.3779 58.0854C57.1977 60.2795 53.586 61.3765 49.543 61.3765ZM49.543 56.939C52.2548 56.939 54.7447 56.2857 57.0128 54.9792C59.2808 53.6726 61.0558 51.8606 62.3378 49.5432C61.0558 47.2752 59.2808 45.4755 57.0128 44.1443C54.7447 42.813 52.2548 42.1474 49.543 42.1474C46.7819 42.1474 44.2673 42.813 41.9992 44.1443C39.7312 45.4755 37.9562 47.2752 36.6742 49.5432C37.9562 51.8606 39.7312 53.6726 41.9992 54.9792C44.2673 56.2857 46.7819 56.939 49.543 56.939ZM49.543 53.9807C50.7756 53.9807 51.8233 53.5616 52.6862 52.7234C53.549 51.8852 53.9805 50.8252 53.9805 49.5432C53.9805 48.3106 53.549 47.2628 52.6862 46.4C51.8233 45.5371 50.7756 45.1057 49.543 45.1057C48.261 45.1057 47.201 45.5371 46.3628 46.4C45.5246 47.2628 45.1055 48.3106 45.1055 49.5432C45.1055 50.8252 45.5246 51.8852 46.3628 52.7234C47.201 53.5616 48.261 53.9807 49.543 53.9807ZM49.543 76.1682C45.8451 76.1682 42.3813 75.4656 39.1518 74.0604C35.9223 72.6552 33.1119 70.7569 30.7206 68.3656C28.3293 65.9743 26.431 63.1639 25.0258 59.9344C23.6206 56.7048 22.918 53.2411 22.918 49.5432C22.918 45.8946 23.6206 42.4555 25.0258 39.226C26.431 35.9965 28.3293 33.1738 30.7206 30.7578C33.1119 28.3418 35.9223 26.4312 39.1518 25.026C42.3813 23.6208 45.8451 22.9182 49.543 22.9182C53.1916 22.9182 56.6306 23.6208 59.8602 25.026C63.0897 26.4312 65.9124 28.3418 68.3284 30.7578C70.7444 33.1738 72.6549 35.9965 74.0602 39.226C75.4654 42.4555 76.168 45.8946 76.168 49.5432C76.168 52.6988 75.6503 55.6818 74.6148 58.4922C73.5794 61.3026 72.1496 63.8665 70.3253 66.1838L82.0846 77.9432L77.869 82.0849L66.1096 70.3995C63.7923 72.2238 61.2284 73.6413 58.418 74.6521C55.6076 75.6628 52.6492 76.1682 49.543 76.1682Z" fill="white"/>
</g>
</svg>
