<svg width="80" height="80" viewBox="0 0 80 80" fill="none" xmlns="http://www.w3.org/2000/svg">
<circle cx="40" cy="40" r="40" transform="matrix(1 0 0 -1 0 80)" fill="#757577"/>
<mask id="mask0_1_1562" style="mask-type:alpha" maskUnits="userSpaceOnUse" x="14" y="14" width="52" height="52">
<rect x="14.0547" y="14.0532" width="51.8919" height="51.8919" fill="#D9D9D9"/>
</mask>
<g mask="url(#mask0_1_1562)">
<path d="M37.8384 52.9725C42.0185 52.9725 45.5861 51.5041 48.5411 48.5671C51.496 45.6302 52.9735 42.0536 52.9735 37.8374C52.9735 33.6572 51.496 30.0896 48.5411 27.1347C45.5861 24.1797 42.0185 22.7023 37.8384 22.7023C33.6221 22.7023 30.0456 24.1797 27.1086 27.1347C24.1717 30.0896 22.7032 33.6572 22.7032 37.8374C22.7032 42.0536 24.1717 45.6302 27.1086 48.5671C30.0456 51.5041 33.6221 52.9725 37.8384 52.9725ZM37.8384 46.486C34.8474 46.486 32.1897 45.6842 29.8654 44.0806C27.5411 42.477 25.8744 40.3959 24.8654 37.8374C25.8744 35.3149 27.5411 33.2428 29.8654 31.6212C32.1897 29.9995 34.8474 29.1887 37.8384 29.1887C40.7933 29.1887 43.433 29.9995 45.7573 31.6212C48.0816 33.2428 49.7663 35.3149 50.8113 37.8374C49.7663 40.3959 48.0816 42.477 45.7573 44.0806C43.433 45.6842 40.7933 46.486 37.8384 46.486ZM37.8384 43.2428C39.8203 43.2428 41.6402 42.7653 43.2978 41.8104C44.9555 40.8554 46.2528 39.5311 47.1897 37.8374C46.2528 36.1797 44.9555 34.8644 43.2978 33.8914C41.6402 32.9185 39.8203 32.432 37.8384 32.432C35.8203 32.432 33.9825 32.9185 32.3249 33.8914C30.6672 34.8644 29.3699 36.1797 28.433 37.8374C29.3699 39.5311 30.6672 40.8554 32.3249 41.8104C33.9825 42.7653 35.8203 43.2428 37.8384 43.2428ZM37.8384 41.0806C38.7393 41.0806 39.505 40.7743 40.1357 40.1617C40.7663 39.5491 41.0816 38.7743 41.0816 37.8374C41.0816 36.9365 40.7663 36.1707 40.1357 35.5401C39.505 34.9095 38.7393 34.5941 37.8384 34.5941C36.9014 34.5941 36.1267 34.9095 35.514 35.5401C34.9014 36.1707 34.5951 36.9365 34.5951 37.8374C34.5951 38.7743 34.9014 39.5491 35.514 40.1617C36.1267 40.7743 36.9014 41.0806 37.8384 41.0806ZM37.8384 57.2968C35.1357 57.2968 32.6041 56.7833 30.2438 55.7563C27.8834 54.7293 25.8294 53.3419 24.0816 51.5941C22.3339 49.8464 20.9465 47.7923 19.9194 45.432C18.8924 43.0716 18.3789 40.5401 18.3789 37.8374C18.3789 35.1707 18.8924 32.6572 19.9194 30.2968C20.9465 27.9365 22.3339 25.8734 24.0816 24.1077C25.8294 22.3419 27.8834 20.9455 30.2438 19.9185C32.6041 18.8914 35.1357 18.3779 37.8384 18.3779C40.505 18.3779 43.0185 18.8914 45.3789 19.9185C47.7393 20.9455 49.8023 22.3419 51.5681 24.1077C53.3339 25.8734 54.7303 27.9365 55.7573 30.2968C56.7843 32.6572 57.2978 35.1707 57.2978 37.8374C57.2978 40.1437 56.9194 42.3239 56.1627 44.3779C55.4059 46.432 54.3609 48.3059 53.0275 49.9995L61.6221 58.5941L58.5411 61.6212L49.9465 53.0806C48.2528 54.414 46.3789 55.45 44.3248 56.1887C42.2708 56.9275 40.1086 57.2968 37.8384 57.2968Z" fill="white"/>
</g>
</svg>
