<svg width="106" height="106" viewBox="0 0 106 106" fill="none" xmlns="http://www.w3.org/2000/svg">
<circle cx="53" cy="53" r="53" transform="matrix(1 0 0 -1 0 106)" fill="#08B0AE"/>
<mask id="mask0_1_1555" style="mask-type:alpha" maskUnits="userSpaceOnUse" x="18" y="18" width="70" height="70">
<rect x="18.6211" y="18.6211" width="68.7568" height="68.7568" fill="#D9D9D9"/>
</mask>
<g mask="url(#mask0_1_1555)">
<path d="M30.0094 78.7839V70.1893H38.8905L31.5851 46.2677C30.2959 45.5515 29.2335 44.5011 28.3979 43.1164C27.5623 41.7317 27.1445 40.2515 27.1445 38.6758C27.1445 36.2884 27.9801 34.2592 29.6513 32.588C31.3225 30.9168 33.3517 30.0812 35.7391 30.0812C37.6013 30.0812 39.2605 30.6184 40.7168 31.6927C42.1731 32.767 43.1878 34.1398 43.7607 35.811H52.9283V32.9461C52.9283 32.1344 53.2029 31.454 53.752 30.9049C54.3011 30.3558 54.9815 30.0812 55.7932 30.0812C56.2229 30.0812 56.6407 30.1767 57.0466 30.3677C57.4524 30.5587 57.7986 30.8452 58.0851 31.2272L62.9553 26.6434C63.3851 26.2137 63.8984 25.9391 64.4952 25.8198C65.0921 25.7004 65.677 25.7839 66.2499 26.0704L77.4229 31.2272C77.9959 31.5137 78.3898 31.9315 78.6047 32.4806C78.8195 33.0297 78.8076 33.5668 78.5689 34.092C78.2824 34.665 77.8646 35.0351 77.3155 35.2022C76.7664 35.3693 76.2292 35.3335 75.704 35.0948L65.3905 30.3677L58.658 36.6704V40.6812L65.3905 46.8407L75.704 42.1137C76.2292 41.8749 76.7783 41.8511 77.3513 42.042C77.9243 42.233 78.3301 42.5911 78.5689 43.1164C78.8553 43.6893 78.8792 44.2384 78.6405 44.7637C78.4017 45.2889 77.9959 45.6948 77.4229 45.9812L66.2499 51.2812C65.677 51.5677 65.0921 51.6513 64.4952 51.5319C63.8984 51.4125 63.3851 51.138 62.9553 50.7083L58.0851 46.1245C57.7986 46.411 57.4524 46.6736 57.0466 46.9123C56.6407 47.1511 56.2229 47.2704 55.7932 47.2704C54.9815 47.2704 54.3011 46.9959 53.752 46.4468C53.2029 45.8977 52.9283 45.2173 52.9283 44.4056V41.5407H43.7607C43.6175 41.9227 43.4623 42.2808 43.2952 42.615C43.1281 42.9493 42.9013 43.3074 42.6148 43.6893L56.9391 70.1893H67.2526V78.7839H30.0094ZM35.7391 41.5407C36.5508 41.5407 37.2312 41.2661 37.7803 40.717C38.3294 40.168 38.604 39.4875 38.604 38.6758C38.604 37.8641 38.3294 37.1837 37.7803 36.6346C37.2312 36.0855 36.5508 35.811 35.7391 35.811C34.9274 35.811 34.247 36.0855 33.6979 36.6346C33.1488 37.1837 32.8743 37.8641 32.8743 38.6758C32.8743 39.4875 33.1488 40.168 33.6979 40.717C34.247 41.2661 34.9274 41.5407 35.7391 41.5407ZM44.7634 70.1893H50.3499L38.031 47.2704H37.7445L44.7634 70.1893Z" fill="white"/>
</g>
</svg>
