<svg width="24" height="14" viewBox="0 0 24 14" fill="none" xmlns="http://www.w3.org/2000/svg">
<path fill-rule="evenodd" clip-rule="evenodd" d="M9.17332 0.529029C6.79037 1.49655 5.22774 3.80253 5.09868 6.54251C4.99809 8.67747 5.57759 10.2422 6.9926 11.6572C8.29795 12.9626 9.6031 13.5431 11.5097 13.6667C14.5029 13.8605 16.9089 12.5463 18.1402 10.045C20.0113 6.24433 18.3658 1.85716 14.5215 0.396385C13.0088 -0.178266 10.7792 -0.123015 9.17332 0.529029ZM5.0584 1.40229C3.01075 2.7553 0 5.99295 0 6.84154C0 7.32024 1.5641 9.339 2.90552 10.5921C3.92998 11.5488 6.28784 13.1891 6.43145 13.0448C6.46983 13.006 6.08455 12.4231 5.57506 11.7494C3.10628 8.48515 3.27224 4.74095 6.03689 1.32321C6.75494 0.435608 6.48902 0.457118 5.0584 1.40229ZM17.714 0.973355C17.714 1.04189 18.0453 1.48516 18.4504 1.95838C20.7043 4.59144 20.6927 9.13972 18.4253 11.7886C18.0065 12.2778 17.7212 12.7355 17.7912 12.8055C18.2347 13.2489 22.8658 9.11273 23.7368 7.49548C24.1182 6.78713 24.118 6.78587 23.5172 5.87381C22.1463 3.7922 17.714 0.0492746 17.714 0.973355ZM14.3479 2.3289C15.3973 2.86432 16.6105 4.31223 16.897 5.37149C17.1731 6.39173 17.0301 8.3816 16.6299 9.09164C15.3165 11.4219 12.6229 12.5545 10.4076 11.7085C6.86186 10.3544 5.76127 6.04778 8.28783 3.41409C9.90613 1.72683 12.3203 1.29453 14.3479 2.3289ZM10.4346 3.2515C9.59825 3.6159 8.54447 4.83437 8.22288 5.80907C7.51559 7.95225 9.15287 10.4442 11.4378 10.7017C13.9434 10.9843 15.8764 9.31075 15.8764 6.85883C15.8764 4.61253 14.1961 2.94488 11.9538 2.96576C11.4683 2.9704 10.7849 3.09882 10.4346 3.2515Z" fill="black"/>
<path fill-rule="evenodd" clip-rule="evenodd" d="M9.17332 0.529029C6.79037 1.49655 5.22774 3.80253 5.09868 6.54251C4.99809 8.67747 5.57759 10.2422 6.9926 11.6572C8.29795 12.9626 9.6031 13.5431 11.5097 13.6667C14.5029 13.8605 16.9089 12.5463 18.1402 10.045C20.0113 6.24433 18.3658 1.85716 14.5215 0.396385C13.0088 -0.178266 10.7792 -0.123015 9.17332 0.529029ZM5.0584 1.40229C3.01075 2.7553 0 5.99295 0 6.84154C0 7.32024 1.5641 9.339 2.90552 10.5921C3.92998 11.5488 6.28784 13.1891 6.43145 13.0448C6.46983 13.006 6.08455 12.4231 5.57506 11.7494C3.10628 8.48515 3.27224 4.74095 6.03689 1.32321C6.75494 0.435608 6.48902 0.457118 5.0584 1.40229ZM17.714 0.973355C17.714 1.04189 18.0453 1.48516 18.4504 1.95838C20.7043 4.59144 20.6927 9.13972 18.4253 11.7886C18.0065 12.2778 17.7212 12.7355 17.7912 12.8055C18.2347 13.2489 22.8658 9.11273 23.7368 7.49548C24.1182 6.78713 24.118 6.78587 23.5172 5.87381C22.1463 3.7922 17.714 0.0492746 17.714 0.973355ZM14.3479 2.3289C15.3973 2.86432 16.6105 4.31223 16.897 5.37149C17.1731 6.39173 17.0301 8.3816 16.6299 9.09164C15.3165 11.4219 12.6229 12.5545 10.4076 11.7085C6.86186 10.3544 5.76127 6.04778 8.28783 3.41409C9.90613 1.72683 12.3203 1.29453 14.3479 2.3289ZM10.4346 3.2515C9.59825 3.6159 8.54447 4.83437 8.22288 5.80907C7.51559 7.95225 9.15287 10.4442 11.4378 10.7017C13.9434 10.9843 15.8764 9.31075 15.8764 6.85883C15.8764 4.61253 14.1961 2.94488 11.9538 2.96576C11.4683 2.9704 10.7849 3.09882 10.4346 3.2515Z" fill="black"/>
<path fill-rule="evenodd" clip-rule="evenodd" d="M9.17332 0.529029C6.79037 1.49655 5.22774 3.80253 5.09868 6.54251C4.99809 8.67747 5.57759 10.2422 6.9926 11.6572C8.29795 12.9626 9.6031 13.5431 11.5097 13.6667C14.5029 13.8605 16.9089 12.5463 18.1402 10.045C20.0113 6.24433 18.3658 1.85716 14.5215 0.396385C13.0088 -0.178266 10.7792 -0.123015 9.17332 0.529029ZM5.0584 1.40229C3.01075 2.7553 0 5.99295 0 6.84154C0 7.32024 1.5641 9.339 2.90552 10.5921C3.92998 11.5488 6.28784 13.1891 6.43145 13.0448C6.46983 13.006 6.08455 12.4231 5.57506 11.7494C3.10628 8.48515 3.27224 4.74095 6.03689 1.32321C6.75494 0.435608 6.48902 0.457118 5.0584 1.40229ZM17.714 0.973355C17.714 1.04189 18.0453 1.48516 18.4504 1.95838C20.7043 4.59144 20.6927 9.13972 18.4253 11.7886C18.0065 12.2778 17.7212 12.7355 17.7912 12.8055C18.2347 13.2489 22.8658 9.11273 23.7368 7.49548C24.1182 6.78713 24.118 6.78587 23.5172 5.87381C22.1463 3.7922 17.714 0.0492746 17.714 0.973355ZM14.3479 2.3289C15.3973 2.86432 16.6105 4.31223 16.897 5.37149C17.1731 6.39173 17.0301 8.3816 16.6299 9.09164C15.3165 11.4219 12.6229 12.5545 10.4076 11.7085C6.86186 10.3544 5.76127 6.04778 8.28783 3.41409C9.90613 1.72683 12.3203 1.29453 14.3479 2.3289ZM10.4346 3.2515C9.59825 3.6159 8.54447 4.83437 8.22288 5.80907C7.51559 7.95225 9.15287 10.4442 11.4378 10.7017C13.9434 10.9843 15.8764 9.31075 15.8764 6.85883C15.8764 4.61253 14.1961 2.94488 11.9538 2.96576C11.4683 2.9704 10.7849 3.09882 10.4346 3.2515Z" fill="black"/>
<path fill-rule="evenodd" clip-rule="evenodd" d="M9.17332 0.529029C6.79037 1.49655 5.22774 3.80253 5.09868 6.54251C4.99809 8.67747 5.57759 10.2422 6.9926 11.6572C8.29795 12.9626 9.6031 13.5431 11.5097 13.6667C14.5029 13.8605 16.9089 12.5463 18.1402 10.045C20.0113 6.24433 18.3658 1.85716 14.5215 0.396385C13.0088 -0.178266 10.7792 -0.123015 9.17332 0.529029ZM5.0584 1.40229C3.01075 2.7553 0 5.99295 0 6.84154C0 7.32024 1.5641 9.339 2.90552 10.5921C3.92998 11.5488 6.28784 13.1891 6.43145 13.0448C6.46983 13.006 6.08455 12.4231 5.57506 11.7494C3.10628 8.48515 3.27224 4.74095 6.03689 1.32321C6.75494 0.435608 6.48902 0.457118 5.0584 1.40229ZM17.714 0.973355C17.714 1.04189 18.0453 1.48516 18.4504 1.95838C20.7043 4.59144 20.6927 9.13972 18.4253 11.7886C18.0065 12.2778 17.7212 12.7355 17.7912 12.8055C18.2347 13.2489 22.8658 9.11273 23.7368 7.49548C24.1182 6.78713 24.118 6.78587 23.5172 5.87381C22.1463 3.7922 17.714 0.0492746 17.714 0.973355ZM14.3479 2.3289C15.3973 2.86432 16.6105 4.31223 16.897 5.37149C17.1731 6.39173 17.0301 8.3816 16.6299 9.09164C15.3165 11.4219 12.6229 12.5545 10.4076 11.7085C6.86186 10.3544 5.76127 6.04778 8.28783 3.41409C9.90613 1.72683 12.3203 1.29453 14.3479 2.3289ZM10.4346 3.2515C9.59825 3.6159 8.54447 4.83437 8.22288 5.80907C7.51559 7.95225 9.15287 10.4442 11.4378 10.7017C13.9434 10.9843 15.8764 9.31075 15.8764 6.85883C15.8764 4.61253 14.1961 2.94488 11.9538 2.96576C11.4683 2.9704 10.7849 3.09882 10.4346 3.2515Z" fill="black"/>
<path fill-rule="evenodd" clip-rule="evenodd" d="M9.17332 0.529029C6.79037 1.49655 5.22774 3.80253 5.09868 6.54251C4.99809 8.67747 5.57759 10.2422 6.9926 11.6572C8.29795 12.9626 9.6031 13.5431 11.5097 13.6667C14.5029 13.8605 16.9089 12.5463 18.1402 10.045C20.0113 6.24433 18.3658 1.85716 14.5215 0.396385C13.0088 -0.178266 10.7792 -0.123015 9.17332 0.529029ZM5.0584 1.40229C3.01075 2.7553 0 5.99295 0 6.84154C0 7.32024 1.5641 9.339 2.90552 10.5921C3.92998 11.5488 6.28784 13.1891 6.43145 13.0448C6.46983 13.006 6.08455 12.4231 5.57506 11.7494C3.10628 8.48515 3.27224 4.74095 6.03689 1.32321C6.75494 0.435608 6.48902 0.457118 5.0584 1.40229ZM17.714 0.973355C17.714 1.04189 18.0453 1.48516 18.4504 1.95838C20.7043 4.59144 20.6927 9.13972 18.4253 11.7886C18.0065 12.2778 17.7212 12.7355 17.7912 12.8055C18.2347 13.2489 22.8658 9.11273 23.7368 7.49548C24.1182 6.78713 24.118 6.78587 23.5172 5.87381C22.1463 3.7922 17.714 0.0492746 17.714 0.973355ZM14.3479 2.3289C15.3973 2.86432 16.6105 4.31223 16.897 5.37149C17.1731 6.39173 17.0301 8.3816 16.6299 9.09164C15.3165 11.4219 12.6229 12.5545 10.4076 11.7085C6.86186 10.3544 5.76127 6.04778 8.28783 3.41409C9.90613 1.72683 12.3203 1.29453 14.3479 2.3289ZM10.4346 3.2515C9.59825 3.6159 8.54447 4.83437 8.22288 5.80907C7.51559 7.95225 9.15287 10.4442 11.4378 10.7017C13.9434 10.9843 15.8764 9.31075 15.8764 6.85883C15.8764 4.61253 14.1961 2.94488 11.9538 2.96576C11.4683 2.9704 10.7849 3.09882 10.4346 3.2515Z" fill="black"/>
<path fill-rule="evenodd" clip-rule="evenodd" d="M9.17332 0.529029C6.79037 1.49655 5.22774 3.80253 5.09868 6.54251C4.99809 8.67747 5.57759 10.2422 6.9926 11.6572C8.29795 12.9626 9.6031 13.5431 11.5097 13.6667C14.5029 13.8605 16.9089 12.5463 18.1402 10.045C20.0113 6.24433 18.3658 1.85716 14.5215 0.396385C13.0088 -0.178266 10.7792 -0.123015 9.17332 0.529029ZM5.0584 1.40229C3.01075 2.7553 0 5.99295 0 6.84154C0 7.32024 1.5641 9.339 2.90552 10.5921C3.92998 11.5488 6.28784 13.1891 6.43145 13.0448C6.46983 13.006 6.08455 12.4231 5.57506 11.7494C3.10628 8.48515 3.27224 4.74095 6.03689 1.32321C6.75494 0.435608 6.48902 0.457118 5.0584 1.40229ZM17.714 0.973355C17.714 1.04189 18.0453 1.48516 18.4504 1.95838C20.7043 4.59144 20.6927 9.13972 18.4253 11.7886C18.0065 12.2778 17.7212 12.7355 17.7912 12.8055C18.2347 13.2489 22.8658 9.11273 23.7368 7.49548C24.1182 6.78713 24.118 6.78587 23.5172 5.87381C22.1463 3.7922 17.714 0.0492746 17.714 0.973355ZM14.3479 2.3289C15.3973 2.86432 16.6105 4.31223 16.897 5.37149C17.1731 6.39173 17.0301 8.3816 16.6299 9.09164C15.3165 11.4219 12.6229 12.5545 10.4076 11.7085C6.86186 10.3544 5.76127 6.04778 8.28783 3.41409C9.90613 1.72683 12.3203 1.29453 14.3479 2.3289ZM10.4346 3.2515C9.59825 3.6159 8.54447 4.83437 8.22288 5.80907C7.51559 7.95225 9.15287 10.4442 11.4378 10.7017C13.9434 10.9843 15.8764 9.31075 15.8764 6.85883C15.8764 4.61253 14.1961 2.94488 11.9538 2.96576C11.4683 2.9704 10.7849 3.09882 10.4346 3.2515Z" fill="black"/>
<path fill-rule="evenodd" clip-rule="evenodd" d="M9.17332 0.529029C6.79037 1.49655 5.22774 3.80253 5.09868 6.54251C4.99809 8.67747 5.57759 10.2422 6.9926 11.6572C8.29795 12.9626 9.6031 13.5431 11.5097 13.6667C14.5029 13.8605 16.9089 12.5463 18.1402 10.045C20.0113 6.24433 18.3658 1.85716 14.5215 0.396385C13.0088 -0.178266 10.7792 -0.123015 9.17332 0.529029ZM5.0584 1.40229C3.01075 2.7553 0 5.99295 0 6.84154C0 7.32024 1.5641 9.339 2.90552 10.5921C3.92998 11.5488 6.28784 13.1891 6.43145 13.0448C6.46983 13.006 6.08455 12.4231 5.57506 11.7494C3.10628 8.48515 3.27224 4.74095 6.03689 1.32321C6.75494 0.435608 6.48902 0.457118 5.0584 1.40229ZM17.714 0.973355C17.714 1.04189 18.0453 1.48516 18.4504 1.95838C20.7043 4.59144 20.6927 9.13972 18.4253 11.7886C18.0065 12.2778 17.7212 12.7355 17.7912 12.8055C18.2347 13.2489 22.8658 9.11273 23.7368 7.49548C24.1182 6.78713 24.118 6.78587 23.5172 5.87381C22.1463 3.7922 17.714 0.0492746 17.714 0.973355ZM14.3479 2.3289C15.3973 2.86432 16.6105 4.31223 16.897 5.37149C17.1731 6.39173 17.0301 8.3816 16.6299 9.09164C15.3165 11.4219 12.6229 12.5545 10.4076 11.7085C6.86186 10.3544 5.76127 6.04778 8.28783 3.41409C9.90613 1.72683 12.3203 1.29453 14.3479 2.3289ZM10.4346 3.2515C9.59825 3.6159 8.54447 4.83437 8.22288 5.80907C7.51559 7.95225 9.15287 10.4442 11.4378 10.7017C13.9434 10.9843 15.8764 9.31075 15.8764 6.85883C15.8764 4.61253 14.1961 2.94488 11.9538 2.96576C11.4683 2.9704 10.7849 3.09882 10.4346 3.2515Z" fill="black"/>
<path fill-rule="evenodd" clip-rule="evenodd" d="M9.17332 0.529029C6.79037 1.49655 5.22774 3.80253 5.09868 6.54251C4.99809 8.67747 5.57759 10.2422 6.9926 11.6572C8.29795 12.9626 9.6031 13.5431 11.5097 13.6667C14.5029 13.8605 16.9089 12.5463 18.1402 10.045C20.0113 6.24433 18.3658 1.85716 14.5215 0.396385C13.0088 -0.178266 10.7792 -0.123015 9.17332 0.529029ZM5.0584 1.40229C3.01075 2.7553 0 5.99295 0 6.84154C0 7.32024 1.5641 9.339 2.90552 10.5921C3.92998 11.5488 6.28784 13.1891 6.43145 13.0448C6.46983 13.006 6.08455 12.4231 5.57506 11.7494C3.10628 8.48515 3.27224 4.74095 6.03689 1.32321C6.75494 0.435608 6.48902 0.457118 5.0584 1.40229ZM17.714 0.973355C17.714 1.04189 18.0453 1.48516 18.4504 1.95838C20.7043 4.59144 20.6927 9.13972 18.4253 11.7886C18.0065 12.2778 17.7212 12.7355 17.7912 12.8055C18.2347 13.2489 22.8658 9.11273 23.7368 7.49548C24.1182 6.78713 24.118 6.78587 23.5172 5.87381C22.1463 3.7922 17.714 0.0492746 17.714 0.973355ZM14.3479 2.3289C15.3973 2.86432 16.6105 4.31223 16.897 5.37149C17.1731 6.39173 17.0301 8.3816 16.6299 9.09164C15.3165 11.4219 12.6229 12.5545 10.4076 11.7085C6.86186 10.3544 5.76127 6.04778 8.28783 3.41409C9.90613 1.72683 12.3203 1.29453 14.3479 2.3289ZM10.4346 3.2515C9.59825 3.6159 8.54447 4.83437 8.22288 5.80907C7.51559 7.95225 9.15287 10.4442 11.4378 10.7017C13.9434 10.9843 15.8764 9.31075 15.8764 6.85883C15.8764 4.61253 14.1961 2.94488 11.9538 2.96576C11.4683 2.9704 10.7849 3.09882 10.4346 3.2515Z" fill="black"/>
</svg>
