<svg width="24" height="18" viewBox="0 0 24 18" fill="none" xmlns="http://www.w3.org/2000/svg">
<path fill-rule="evenodd" clip-rule="evenodd" d="M6.4298 0.166341C4.23787 0.683995 1.58649 2.91914 0.580157 5.09707C-0.214497 6.81751 -0.188221 10.6407 0.630743 12.4584C1.4308 14.2339 3.58687 16.1959 5.54158 16.9268C7.63897 17.7111 10.4939 17.5755 12.4462 16.5987C14.9944 15.3237 17.0282 12.6436 17.2554 10.2618C17.3325 9.45367 17.3072 9.34832 17.1488 9.8176C16.4781 11.8037 15.2454 13.0055 13.8771 13.0075C13.0586 13.0087 11.8944 12.0523 11.3704 10.9482C10.8849 9.92516 10.8522 7.63304 11.3077 6.54297C11.4919 6.10218 12.0115 5.43104 12.4621 5.05189C13.1436 4.47849 13.4422 4.3837 14.2337 4.49003C15.432 4.65063 16.0464 5.19382 16.7856 6.74654L17.3703 7.97438L17.2251 6.99211C16.8477 4.43625 14.392 1.46342 11.8826 0.524622C10.5222 0.015563 7.8202 -0.161982 6.4298 0.166341ZM19.3753 4.55142C18.3489 5.27044 17.9982 6.32908 17.9982 8.71107C17.9982 11.1434 18.3646 12.2003 19.4549 12.9149C20.0234 13.2875 20.1464 13.2872 21.127 12.9127C24.7599 11.5253 25.0072 6.43197 21.5277 4.65702C20.3728 4.06766 20.0858 4.05366 19.3753 4.55142Z" fill="black"/>
<path fill-rule="evenodd" clip-rule="evenodd" d="M6.4298 0.166341C4.23787 0.683995 1.58649 2.91914 0.580157 5.09707C-0.214497 6.81751 -0.188221 10.6407 0.630743 12.4584C1.4308 14.2339 3.58687 16.1959 5.54158 16.9268C7.63897 17.7111 10.4939 17.5755 12.4462 16.5987C14.9944 15.3237 17.0282 12.6436 17.2554 10.2618C17.3325 9.45367 17.3072 9.34832 17.1488 9.8176C16.4781 11.8037 15.2454 13.0055 13.8771 13.0075C13.0586 13.0087 11.8944 12.0523 11.3704 10.9482C10.8849 9.92516 10.8522 7.63304 11.3077 6.54297C11.4919 6.10218 12.0115 5.43104 12.4621 5.05189C13.1436 4.47849 13.4422 4.3837 14.2337 4.49003C15.432 4.65063 16.0464 5.19382 16.7856 6.74654L17.3703 7.97438L17.2251 6.99211C16.8477 4.43625 14.392 1.46342 11.8826 0.524622C10.5222 0.015563 7.8202 -0.161982 6.4298 0.166341ZM19.3753 4.55142C18.3489 5.27044 17.9982 6.32908 17.9982 8.71107C17.9982 11.1434 18.3646 12.2003 19.4549 12.9149C20.0234 13.2875 20.1464 13.2872 21.127 12.9127C24.7599 11.5253 25.0072 6.43197 21.5277 4.65702C20.3728 4.06766 20.0858 4.05366 19.3753 4.55142Z" fill="black"/>
<path fill-rule="evenodd" clip-rule="evenodd" d="M6.4298 0.166341C4.23787 0.683995 1.58649 2.91914 0.580157 5.09707C-0.214497 6.81751 -0.188221 10.6407 0.630743 12.4584C1.4308 14.2339 3.58687 16.1959 5.54158 16.9268C7.63897 17.7111 10.4939 17.5755 12.4462 16.5987C14.9944 15.3237 17.0282 12.6436 17.2554 10.2618C17.3325 9.45367 17.3072 9.34832 17.1488 9.8176C16.4781 11.8037 15.2454 13.0055 13.8771 13.0075C13.0586 13.0087 11.8944 12.0523 11.3704 10.9482C10.8849 9.92516 10.8522 7.63304 11.3077 6.54297C11.4919 6.10218 12.0115 5.43104 12.4621 5.05189C13.1436 4.47849 13.4422 4.3837 14.2337 4.49003C15.432 4.65063 16.0464 5.19382 16.7856 6.74654L17.3703 7.97438L17.2251 6.99211C16.8477 4.43625 14.392 1.46342 11.8826 0.524622C10.5222 0.015563 7.8202 -0.161982 6.4298 0.166341ZM19.3753 4.55142C18.3489 5.27044 17.9982 6.32908 17.9982 8.71107C17.9982 11.1434 18.3646 12.2003 19.4549 12.9149C20.0234 13.2875 20.1464 13.2872 21.127 12.9127C24.7599 11.5253 25.0072 6.43197 21.5277 4.65702C20.3728 4.06766 20.0858 4.05366 19.3753 4.55142Z" fill="black"/>
<path fill-rule="evenodd" clip-rule="evenodd" d="M6.4298 0.166341C4.23787 0.683995 1.58649 2.91914 0.580157 5.09707C-0.214497 6.81751 -0.188221 10.6407 0.630743 12.4584C1.4308 14.2339 3.58687 16.1959 5.54158 16.9268C7.63897 17.7111 10.4939 17.5755 12.4462 16.5987C14.9944 15.3237 17.0282 12.6436 17.2554 10.2618C17.3325 9.45367 17.3072 9.34832 17.1488 9.8176C16.4781 11.8037 15.2454 13.0055 13.8771 13.0075C13.0586 13.0087 11.8944 12.0523 11.3704 10.9482C10.8849 9.92516 10.8522 7.63304 11.3077 6.54297C11.4919 6.10218 12.0115 5.43104 12.4621 5.05189C13.1436 4.47849 13.4422 4.3837 14.2337 4.49003C15.432 4.65063 16.0464 5.19382 16.7856 6.74654L17.3703 7.97438L17.2251 6.99211C16.8477 4.43625 14.392 1.46342 11.8826 0.524622C10.5222 0.015563 7.8202 -0.161982 6.4298 0.166341ZM19.3753 4.55142C18.3489 5.27044 17.9982 6.32908 17.9982 8.71107C17.9982 11.1434 18.3646 12.2003 19.4549 12.9149C20.0234 13.2875 20.1464 13.2872 21.127 12.9127C24.7599 11.5253 25.0072 6.43197 21.5277 4.65702C20.3728 4.06766 20.0858 4.05366 19.3753 4.55142Z" fill="black"/>
<path fill-rule="evenodd" clip-rule="evenodd" d="M6.4298 0.166341C4.23787 0.683995 1.58649 2.91914 0.580157 5.09707C-0.214497 6.81751 -0.188221 10.6407 0.630743 12.4584C1.4308 14.2339 3.58687 16.1959 5.54158 16.9268C7.63897 17.7111 10.4939 17.5755 12.4462 16.5987C14.9944 15.3237 17.0282 12.6436 17.2554 10.2618C17.3325 9.45367 17.3072 9.34832 17.1488 9.8176C16.4781 11.8037 15.2454 13.0055 13.8771 13.0075C13.0586 13.0087 11.8944 12.0523 11.3704 10.9482C10.8849 9.92516 10.8522 7.63304 11.3077 6.54297C11.4919 6.10218 12.0115 5.43104 12.4621 5.05189C13.1436 4.47849 13.4422 4.3837 14.2337 4.49003C15.432 4.65063 16.0464 5.19382 16.7856 6.74654L17.3703 7.97438L17.2251 6.99211C16.8477 4.43625 14.392 1.46342 11.8826 0.524622C10.5222 0.015563 7.8202 -0.161982 6.4298 0.166341ZM19.3753 4.55142C18.3489 5.27044 17.9982 6.32908 17.9982 8.71107C17.9982 11.1434 18.3646 12.2003 19.4549 12.9149C20.0234 13.2875 20.1464 13.2872 21.127 12.9127C24.7599 11.5253 25.0072 6.43197 21.5277 4.65702C20.3728 4.06766 20.0858 4.05366 19.3753 4.55142Z" fill="black"/>
<path fill-rule="evenodd" clip-rule="evenodd" d="M6.4298 0.166341C4.23787 0.683995 1.58649 2.91914 0.580157 5.09707C-0.214497 6.81751 -0.188221 10.6407 0.630743 12.4584C1.4308 14.2339 3.58687 16.1959 5.54158 16.9268C7.63897 17.7111 10.4939 17.5755 12.4462 16.5987C14.9944 15.3237 17.0282 12.6436 17.2554 10.2618C17.3325 9.45367 17.3072 9.34832 17.1488 9.8176C16.4781 11.8037 15.2454 13.0055 13.8771 13.0075C13.0586 13.0087 11.8944 12.0523 11.3704 10.9482C10.8849 9.92516 10.8522 7.63304 11.3077 6.54297C11.4919 6.10218 12.0115 5.43104 12.4621 5.05189C13.1436 4.47849 13.4422 4.3837 14.2337 4.49003C15.432 4.65063 16.0464 5.19382 16.7856 6.74654L17.3703 7.97438L17.2251 6.99211C16.8477 4.43625 14.392 1.46342 11.8826 0.524622C10.5222 0.015563 7.8202 -0.161982 6.4298 0.166341ZM19.3753 4.55142C18.3489 5.27044 17.9982 6.32908 17.9982 8.71107C17.9982 11.1434 18.3646 12.2003 19.4549 12.9149C20.0234 13.2875 20.1464 13.2872 21.127 12.9127C24.7599 11.5253 25.0072 6.43197 21.5277 4.65702C20.3728 4.06766 20.0858 4.05366 19.3753 4.55142Z" fill="black"/>
<path fill-rule="evenodd" clip-rule="evenodd" d="M6.4298 0.166341C4.23787 0.683995 1.58649 2.91914 0.580157 5.09707C-0.214497 6.81751 -0.188221 10.6407 0.630743 12.4584C1.4308 14.2339 3.58687 16.1959 5.54158 16.9268C7.63897 17.7111 10.4939 17.5755 12.4462 16.5987C14.9944 15.3237 17.0282 12.6436 17.2554 10.2618C17.3325 9.45367 17.3072 9.34832 17.1488 9.8176C16.4781 11.8037 15.2454 13.0055 13.8771 13.0075C13.0586 13.0087 11.8944 12.0523 11.3704 10.9482C10.8849 9.92516 10.8522 7.63304 11.3077 6.54297C11.4919 6.10218 12.0115 5.43104 12.4621 5.05189C13.1436 4.47849 13.4422 4.3837 14.2337 4.49003C15.432 4.65063 16.0464 5.19382 16.7856 6.74654L17.3703 7.97438L17.2251 6.99211C16.8477 4.43625 14.392 1.46342 11.8826 0.524622C10.5222 0.015563 7.8202 -0.161982 6.4298 0.166341ZM19.3753 4.55142C18.3489 5.27044 17.9982 6.32908 17.9982 8.71107C17.9982 11.1434 18.3646 12.2003 19.4549 12.9149C20.0234 13.2875 20.1464 13.2872 21.127 12.9127C24.7599 11.5253 25.0072 6.43197 21.5277 4.65702C20.3728 4.06766 20.0858 4.05366 19.3753 4.55142Z" fill="black"/>
<path fill-rule="evenodd" clip-rule="evenodd" d="M6.4298 0.166341C4.23787 0.683995 1.58649 2.91914 0.580157 5.09707C-0.214497 6.81751 -0.188221 10.6407 0.630743 12.4584C1.4308 14.2339 3.58687 16.1959 5.54158 16.9268C7.63897 17.7111 10.4939 17.5755 12.4462 16.5987C14.9944 15.3237 17.0282 12.6436 17.2554 10.2618C17.3325 9.45367 17.3072 9.34832 17.1488 9.8176C16.4781 11.8037 15.2454 13.0055 13.8771 13.0075C13.0586 13.0087 11.8944 12.0523 11.3704 10.9482C10.8849 9.92516 10.8522 7.63304 11.3077 6.54297C11.4919 6.10218 12.0115 5.43104 12.4621 5.05189C13.1436 4.47849 13.4422 4.3837 14.2337 4.49003C15.432 4.65063 16.0464 5.19382 16.7856 6.74654L17.3703 7.97438L17.2251 6.99211C16.8477 4.43625 14.392 1.46342 11.8826 0.524622C10.5222 0.015563 7.8202 -0.161982 6.4298 0.166341ZM19.3753 4.55142C18.3489 5.27044 17.9982 6.32908 17.9982 8.71107C17.9982 11.1434 18.3646 12.2003 19.4549 12.9149C20.0234 13.2875 20.1464 13.2872 21.127 12.9127C24.7599 11.5253 25.0072 6.43197 21.5277 4.65702C20.3728 4.06766 20.0858 4.05366 19.3753 4.55142Z" fill="black"/>
</svg>
