<svg width="24" height="21" viewBox="0 0 24 21" fill="none" xmlns="http://www.w3.org/2000/svg">
<path fill-rule="evenodd" clip-rule="evenodd" d="M7.83763 0.385893C5.80288 0.886471 2.97507 2.21599 2.20785 3.03258C1.59504 3.685 1.58499 3.75676 2.04079 4.21285C2.49688 4.66865 2.66049 4.63105 4.7314 3.59315C9.75527 1.07562 13.8337 1.03486 18.8288 3.4528C21.359 4.67726 22.1474 4.72548 21.9939 3.64654C21.8771 2.82506 19.4129 1.32046 16.9207 0.548925C14.7978 -0.108371 10.1835 -0.191035 7.83763 0.385893ZM8.37724 4.13277C5.11114 5.39053 2.40991 7.47895 0.769831 10.0146C-0.260889 11.6081 -0.258593 12.1067 0.788775 13.9328C1.92771 15.9185 4.17772 17.8703 6.71621 19.0749C8.73201 20.0316 8.96766 20.0761 12.0102 20.0761C15.028 20.0761 15.3053 20.025 17.3133 19.097C19.7723 17.961 22.0427 15.9672 23.2261 13.9049C24.2405 12.1366 24.2485 11.7672 23.3042 10.2396C21.5473 7.39743 18.9057 5.33599 15.4918 4.14339C12.8753 3.2292 10.7323 3.22604 8.37724 4.13277ZM8.98029 8.60439C6.70329 10.8932 6.09708 11.3682 6.02619 10.9198C5.92171 10.2585 6.64273 8.73441 7.51242 7.77832C8.34021 6.86815 10.3646 5.85436 11.5635 5.74931C11.7185 5.73582 10.5561 7.02056 8.98029 8.60439ZM15.0303 6.71459C15.5578 7.10811 15.3661 7.35265 11.4292 11.3071C9.14217 13.6041 7.17689 15.4836 7.06208 15.4836C6.94726 15.4836 6.70587 15.2083 6.52591 14.8719C6.2274 14.3145 6.55145 13.9064 10.1715 10.2795C12.3566 8.09003 14.2186 6.29869 14.3087 6.29869C14.3991 6.29869 14.7237 6.48583 15.0303 6.71459ZM17.5627 9.60526C17.7019 10.0682 16.9663 10.9537 13.902 14.0117C10.1505 17.7554 10.0512 17.8301 9.32759 17.4503L8.58792 17.0623L12.7642 12.8019C15.061 10.4586 17.0412 8.65031 17.1643 8.78349C17.2878 8.91639 17.4669 9.28637 17.5627 9.60526ZM17.7384 13.9104C17.5481 14.487 16.9984 15.4073 16.5171 15.9558C15.6262 16.9704 13.6213 18.1768 13.1095 18.0063C12.9545 17.9546 13.9648 16.7305 15.3549 15.2861C16.745 13.8418 17.9278 12.7055 17.9835 12.7609C18.0389 12.8165 17.9287 13.3338 17.7384 13.9104Z" fill="black"/>
<path fill-rule="evenodd" clip-rule="evenodd" d="M7.83763 0.385893C5.80288 0.886471 2.97507 2.21599 2.20785 3.03258C1.59504 3.685 1.58499 3.75676 2.04079 4.21285C2.49688 4.66865 2.66049 4.63105 4.7314 3.59315C9.75527 1.07562 13.8337 1.03486 18.8288 3.4528C21.359 4.67726 22.1474 4.72548 21.9939 3.64654C21.8771 2.82506 19.4129 1.32046 16.9207 0.548925C14.7978 -0.108371 10.1835 -0.191035 7.83763 0.385893ZM8.37724 4.13277C5.11114 5.39053 2.40991 7.47895 0.769831 10.0146C-0.260889 11.6081 -0.258593 12.1067 0.788775 13.9328C1.92771 15.9185 4.17772 17.8703 6.71621 19.0749C8.73201 20.0316 8.96766 20.0761 12.0102 20.0761C15.028 20.0761 15.3053 20.025 17.3133 19.097C19.7723 17.961 22.0427 15.9672 23.2261 13.9049C24.2405 12.1366 24.2485 11.7672 23.3042 10.2396C21.5473 7.39743 18.9057 5.33599 15.4918 4.14339C12.8753 3.2292 10.7323 3.22604 8.37724 4.13277ZM8.98029 8.60439C6.70329 10.8932 6.09708 11.3682 6.02619 10.9198C5.92171 10.2585 6.64273 8.73441 7.51242 7.77832C8.34021 6.86815 10.3646 5.85436 11.5635 5.74931C11.7185 5.73582 10.5561 7.02056 8.98029 8.60439ZM15.0303 6.71459C15.5578 7.10811 15.3661 7.35265 11.4292 11.3071C9.14217 13.6041 7.17689 15.4836 7.06208 15.4836C6.94726 15.4836 6.70587 15.2083 6.52591 14.8719C6.2274 14.3145 6.55145 13.9064 10.1715 10.2795C12.3566 8.09003 14.2186 6.29869 14.3087 6.29869C14.3991 6.29869 14.7237 6.48583 15.0303 6.71459ZM17.5627 9.60526C17.7019 10.0682 16.9663 10.9537 13.902 14.0117C10.1505 17.7554 10.0512 17.8301 9.32759 17.4503L8.58792 17.0623L12.7642 12.8019C15.061 10.4586 17.0412 8.65031 17.1643 8.78349C17.2878 8.91639 17.4669 9.28637 17.5627 9.60526ZM17.7384 13.9104C17.5481 14.487 16.9984 15.4073 16.5171 15.9558C15.6262 16.9704 13.6213 18.1768 13.1095 18.0063C12.9545 17.9546 13.9648 16.7305 15.3549 15.2861C16.745 13.8418 17.9278 12.7055 17.9835 12.7609C18.0389 12.8165 17.9287 13.3338 17.7384 13.9104Z" fill="black"/>
<path fill-rule="evenodd" clip-rule="evenodd" d="M7.83763 0.385893C5.80288 0.886471 2.97507 2.21599 2.20785 3.03258C1.59504 3.685 1.58499 3.75676 2.04079 4.21285C2.49688 4.66865 2.66049 4.63105 4.7314 3.59315C9.75527 1.07562 13.8337 1.03486 18.8288 3.4528C21.359 4.67726 22.1474 4.72548 21.9939 3.64654C21.8771 2.82506 19.4129 1.32046 16.9207 0.548925C14.7978 -0.108371 10.1835 -0.191035 7.83763 0.385893ZM8.37724 4.13277C5.11114 5.39053 2.40991 7.47895 0.769831 10.0146C-0.260889 11.6081 -0.258593 12.1067 0.788775 13.9328C1.92771 15.9185 4.17772 17.8703 6.71621 19.0749C8.73201 20.0316 8.96766 20.0761 12.0102 20.0761C15.028 20.0761 15.3053 20.025 17.3133 19.097C19.7723 17.961 22.0427 15.9672 23.2261 13.9049C24.2405 12.1366 24.2485 11.7672 23.3042 10.2396C21.5473 7.39743 18.9057 5.33599 15.4918 4.14339C12.8753 3.2292 10.7323 3.22604 8.37724 4.13277ZM8.98029 8.60439C6.70329 10.8932 6.09708 11.3682 6.02619 10.9198C5.92171 10.2585 6.64273 8.73441 7.51242 7.77832C8.34021 6.86815 10.3646 5.85436 11.5635 5.74931C11.7185 5.73582 10.5561 7.02056 8.98029 8.60439ZM15.0303 6.71459C15.5578 7.10811 15.3661 7.35265 11.4292 11.3071C9.14217 13.6041 7.17689 15.4836 7.06208 15.4836C6.94726 15.4836 6.70587 15.2083 6.52591 14.8719C6.2274 14.3145 6.55145 13.9064 10.1715 10.2795C12.3566 8.09003 14.2186 6.29869 14.3087 6.29869C14.3991 6.29869 14.7237 6.48583 15.0303 6.71459ZM17.5627 9.60526C17.7019 10.0682 16.9663 10.9537 13.902 14.0117C10.1505 17.7554 10.0512 17.8301 9.32759 17.4503L8.58792 17.0623L12.7642 12.8019C15.061 10.4586 17.0412 8.65031 17.1643 8.78349C17.2878 8.91639 17.4669 9.28637 17.5627 9.60526ZM17.7384 13.9104C17.5481 14.487 16.9984 15.4073 16.5171 15.9558C15.6262 16.9704 13.6213 18.1768 13.1095 18.0063C12.9545 17.9546 13.9648 16.7305 15.3549 15.2861C16.745 13.8418 17.9278 12.7055 17.9835 12.7609C18.0389 12.8165 17.9287 13.3338 17.7384 13.9104Z" fill="black"/>
<path fill-rule="evenodd" clip-rule="evenodd" d="M7.83763 0.385893C5.80288 0.886471 2.97507 2.21599 2.20785 3.03258C1.59504 3.685 1.58499 3.75676 2.04079 4.21285C2.49688 4.66865 2.66049 4.63105 4.7314 3.59315C9.75527 1.07562 13.8337 1.03486 18.8288 3.4528C21.359 4.67726 22.1474 4.72548 21.9939 3.64654C21.8771 2.82506 19.4129 1.32046 16.9207 0.548925C14.7978 -0.108371 10.1835 -0.191035 7.83763 0.385893ZM8.37724 4.13277C5.11114 5.39053 2.40991 7.47895 0.769831 10.0146C-0.260889 11.6081 -0.258593 12.1067 0.788775 13.9328C1.92771 15.9185 4.17772 17.8703 6.71621 19.0749C8.73201 20.0316 8.96766 20.0761 12.0102 20.0761C15.028 20.0761 15.3053 20.025 17.3133 19.097C19.7723 17.961 22.0427 15.9672 23.2261 13.9049C24.2405 12.1366 24.2485 11.7672 23.3042 10.2396C21.5473 7.39743 18.9057 5.33599 15.4918 4.14339C12.8753 3.2292 10.7323 3.22604 8.37724 4.13277ZM8.98029 8.60439C6.70329 10.8932 6.09708 11.3682 6.02619 10.9198C5.92171 10.2585 6.64273 8.73441 7.51242 7.77832C8.34021 6.86815 10.3646 5.85436 11.5635 5.74931C11.7185 5.73582 10.5561 7.02056 8.98029 8.60439ZM15.0303 6.71459C15.5578 7.10811 15.3661 7.35265 11.4292 11.3071C9.14217 13.6041 7.17689 15.4836 7.06208 15.4836C6.94726 15.4836 6.70587 15.2083 6.52591 14.8719C6.2274 14.3145 6.55145 13.9064 10.1715 10.2795C12.3566 8.09003 14.2186 6.29869 14.3087 6.29869C14.3991 6.29869 14.7237 6.48583 15.0303 6.71459ZM17.5627 9.60526C17.7019 10.0682 16.9663 10.9537 13.902 14.0117C10.1505 17.7554 10.0512 17.8301 9.32759 17.4503L8.58792 17.0623L12.7642 12.8019C15.061 10.4586 17.0412 8.65031 17.1643 8.78349C17.2878 8.91639 17.4669 9.28637 17.5627 9.60526ZM17.7384 13.9104C17.5481 14.487 16.9984 15.4073 16.5171 15.9558C15.6262 16.9704 13.6213 18.1768 13.1095 18.0063C12.9545 17.9546 13.9648 16.7305 15.3549 15.2861C16.745 13.8418 17.9278 12.7055 17.9835 12.7609C18.0389 12.8165 17.9287 13.3338 17.7384 13.9104Z" fill="black"/>
<path fill-rule="evenodd" clip-rule="evenodd" d="M7.83763 0.385893C5.80288 0.886471 2.97507 2.21599 2.20785 3.03258C1.59504 3.685 1.58499 3.75676 2.04079 4.21285C2.49688 4.66865 2.66049 4.63105 4.7314 3.59315C9.75527 1.07562 13.8337 1.03486 18.8288 3.4528C21.359 4.67726 22.1474 4.72548 21.9939 3.64654C21.8771 2.82506 19.4129 1.32046 16.9207 0.548925C14.7978 -0.108371 10.1835 -0.191035 7.83763 0.385893ZM8.37724 4.13277C5.11114 5.39053 2.40991 7.47895 0.769831 10.0146C-0.260889 11.6081 -0.258593 12.1067 0.788775 13.9328C1.92771 15.9185 4.17772 17.8703 6.71621 19.0749C8.73201 20.0316 8.96766 20.0761 12.0102 20.0761C15.028 20.0761 15.3053 20.025 17.3133 19.097C19.7723 17.961 22.0427 15.9672 23.2261 13.9049C24.2405 12.1366 24.2485 11.7672 23.3042 10.2396C21.5473 7.39743 18.9057 5.33599 15.4918 4.14339C12.8753 3.2292 10.7323 3.22604 8.37724 4.13277ZM8.98029 8.60439C6.70329 10.8932 6.09708 11.3682 6.02619 10.9198C5.92171 10.2585 6.64273 8.73441 7.51242 7.77832C8.34021 6.86815 10.3646 5.85436 11.5635 5.74931C11.7185 5.73582 10.5561 7.02056 8.98029 8.60439ZM15.0303 6.71459C15.5578 7.10811 15.3661 7.35265 11.4292 11.3071C9.14217 13.6041 7.17689 15.4836 7.06208 15.4836C6.94726 15.4836 6.70587 15.2083 6.52591 14.8719C6.2274 14.3145 6.55145 13.9064 10.1715 10.2795C12.3566 8.09003 14.2186 6.29869 14.3087 6.29869C14.3991 6.29869 14.7237 6.48583 15.0303 6.71459ZM17.5627 9.60526C17.7019 10.0682 16.9663 10.9537 13.902 14.0117C10.1505 17.7554 10.0512 17.8301 9.32759 17.4503L8.58792 17.0623L12.7642 12.8019C15.061 10.4586 17.0412 8.65031 17.1643 8.78349C17.2878 8.91639 17.4669 9.28637 17.5627 9.60526ZM17.7384 13.9104C17.5481 14.487 16.9984 15.4073 16.5171 15.9558C15.6262 16.9704 13.6213 18.1768 13.1095 18.0063C12.9545 17.9546 13.9648 16.7305 15.3549 15.2861C16.745 13.8418 17.9278 12.7055 17.9835 12.7609C18.0389 12.8165 17.9287 13.3338 17.7384 13.9104Z" fill="black"/>
<path fill-rule="evenodd" clip-rule="evenodd" d="M7.83763 0.385893C5.80288 0.886471 2.97507 2.21599 2.20785 3.03258C1.59504 3.685 1.58499 3.75676 2.04079 4.21285C2.49688 4.66865 2.66049 4.63105 4.7314 3.59315C9.75527 1.07562 13.8337 1.03486 18.8288 3.4528C21.359 4.67726 22.1474 4.72548 21.9939 3.64654C21.8771 2.82506 19.4129 1.32046 16.9207 0.548925C14.7978 -0.108371 10.1835 -0.191035 7.83763 0.385893ZM8.37724 4.13277C5.11114 5.39053 2.40991 7.47895 0.769831 10.0146C-0.260889 11.6081 -0.258593 12.1067 0.788775 13.9328C1.92771 15.9185 4.17772 17.8703 6.71621 19.0749C8.73201 20.0316 8.96766 20.0761 12.0102 20.0761C15.028 20.0761 15.3053 20.025 17.3133 19.097C19.7723 17.961 22.0427 15.9672 23.2261 13.9049C24.2405 12.1366 24.2485 11.7672 23.3042 10.2396C21.5473 7.39743 18.9057 5.33599 15.4918 4.14339C12.8753 3.2292 10.7323 3.22604 8.37724 4.13277ZM8.98029 8.60439C6.70329 10.8932 6.09708 11.3682 6.02619 10.9198C5.92171 10.2585 6.64273 8.73441 7.51242 7.77832C8.34021 6.86815 10.3646 5.85436 11.5635 5.74931C11.7185 5.73582 10.5561 7.02056 8.98029 8.60439ZM15.0303 6.71459C15.5578 7.10811 15.3661 7.35265 11.4292 11.3071C9.14217 13.6041 7.17689 15.4836 7.06208 15.4836C6.94726 15.4836 6.70587 15.2083 6.52591 14.8719C6.2274 14.3145 6.55145 13.9064 10.1715 10.2795C12.3566 8.09003 14.2186 6.29869 14.3087 6.29869C14.3991 6.29869 14.7237 6.48583 15.0303 6.71459ZM17.5627 9.60526C17.7019 10.0682 16.9663 10.9537 13.902 14.0117C10.1505 17.7554 10.0512 17.8301 9.32759 17.4503L8.58792 17.0623L12.7642 12.8019C15.061 10.4586 17.0412 8.65031 17.1643 8.78349C17.2878 8.91639 17.4669 9.28637 17.5627 9.60526ZM17.7384 13.9104C17.5481 14.487 16.9984 15.4073 16.5171 15.9558C15.6262 16.9704 13.6213 18.1768 13.1095 18.0063C12.9545 17.9546 13.9648 16.7305 15.3549 15.2861C16.745 13.8418 17.9278 12.7055 17.9835 12.7609C18.0389 12.8165 17.9287 13.3338 17.7384 13.9104Z" fill="black"/>
<path fill-rule="evenodd" clip-rule="evenodd" d="M7.83763 0.385893C5.80288 0.886471 2.97507 2.21599 2.20785 3.03258C1.59504 3.685 1.58499 3.75676 2.04079 4.21285C2.49688 4.66865 2.66049 4.63105 4.7314 3.59315C9.75527 1.07562 13.8337 1.03486 18.8288 3.4528C21.359 4.67726 22.1474 4.72548 21.9939 3.64654C21.8771 2.82506 19.4129 1.32046 16.9207 0.548925C14.7978 -0.108371 10.1835 -0.191035 7.83763 0.385893ZM8.37724 4.13277C5.11114 5.39053 2.40991 7.47895 0.769831 10.0146C-0.260889 11.6081 -0.258593 12.1067 0.788775 13.9328C1.92771 15.9185 4.17772 17.8703 6.71621 19.0749C8.73201 20.0316 8.96766 20.0761 12.0102 20.0761C15.028 20.0761 15.3053 20.025 17.3133 19.097C19.7723 17.961 22.0427 15.9672 23.2261 13.9049C24.2405 12.1366 24.2485 11.7672 23.3042 10.2396C21.5473 7.39743 18.9057 5.33599 15.4918 4.14339C12.8753 3.2292 10.7323 3.22604 8.37724 4.13277ZM8.98029 8.60439C6.70329 10.8932 6.09708 11.3682 6.02619 10.9198C5.92171 10.2585 6.64273 8.73441 7.51242 7.77832C8.34021 6.86815 10.3646 5.85436 11.5635 5.74931C11.7185 5.73582 10.5561 7.02056 8.98029 8.60439ZM15.0303 6.71459C15.5578 7.10811 15.3661 7.35265 11.4292 11.3071C9.14217 13.6041 7.17689 15.4836 7.06208 15.4836C6.94726 15.4836 6.70587 15.2083 6.52591 14.8719C6.2274 14.3145 6.55145 13.9064 10.1715 10.2795C12.3566 8.09003 14.2186 6.29869 14.3087 6.29869C14.3991 6.29869 14.7237 6.48583 15.0303 6.71459ZM17.5627 9.60526C17.7019 10.0682 16.9663 10.9537 13.902 14.0117C10.1505 17.7554 10.0512 17.8301 9.32759 17.4503L8.58792 17.0623L12.7642 12.8019C15.061 10.4586 17.0412 8.65031 17.1643 8.78349C17.2878 8.91639 17.4669 9.28637 17.5627 9.60526ZM17.7384 13.9104C17.5481 14.487 16.9984 15.4073 16.5171 15.9558C15.6262 16.9704 13.6213 18.1768 13.1095 18.0063C12.9545 17.9546 13.9648 16.7305 15.3549 15.2861C16.745 13.8418 17.9278 12.7055 17.9835 12.7609C18.0389 12.8165 17.9287 13.3338 17.7384 13.9104Z" fill="black"/>
<path fill-rule="evenodd" clip-rule="evenodd" d="M7.83763 0.385893C5.80288 0.886471 2.97507 2.21599 2.20785 3.03258C1.59504 3.685 1.58499 3.75676 2.04079 4.21285C2.49688 4.66865 2.66049 4.63105 4.7314 3.59315C9.75527 1.07562 13.8337 1.03486 18.8288 3.4528C21.359 4.67726 22.1474 4.72548 21.9939 3.64654C21.8771 2.82506 19.4129 1.32046 16.9207 0.548925C14.7978 -0.108371 10.1835 -0.191035 7.83763 0.385893ZM8.37724 4.13277C5.11114 5.39053 2.40991 7.47895 0.769831 10.0146C-0.260889 11.6081 -0.258593 12.1067 0.788775 13.9328C1.92771 15.9185 4.17772 17.8703 6.71621 19.0749C8.73201 20.0316 8.96766 20.0761 12.0102 20.0761C15.028 20.0761 15.3053 20.025 17.3133 19.097C19.7723 17.961 22.0427 15.9672 23.2261 13.9049C24.2405 12.1366 24.2485 11.7672 23.3042 10.2396C21.5473 7.39743 18.9057 5.33599 15.4918 4.14339C12.8753 3.2292 10.7323 3.22604 8.37724 4.13277ZM8.98029 8.60439C6.70329 10.8932 6.09708 11.3682 6.02619 10.9198C5.92171 10.2585 6.64273 8.73441 7.51242 7.77832C8.34021 6.86815 10.3646 5.85436 11.5635 5.74931C11.7185 5.73582 10.5561 7.02056 8.98029 8.60439ZM15.0303 6.71459C15.5578 7.10811 15.3661 7.35265 11.4292 11.3071C9.14217 13.6041 7.17689 15.4836 7.06208 15.4836C6.94726 15.4836 6.70587 15.2083 6.52591 14.8719C6.2274 14.3145 6.55145 13.9064 10.1715 10.2795C12.3566 8.09003 14.2186 6.29869 14.3087 6.29869C14.3991 6.29869 14.7237 6.48583 15.0303 6.71459ZM17.5627 9.60526C17.7019 10.0682 16.9663 10.9537 13.902 14.0117C10.1505 17.7554 10.0512 17.8301 9.32759 17.4503L8.58792 17.0623L12.7642 12.8019C15.061 10.4586 17.0412 8.65031 17.1643 8.78349C17.2878 8.91639 17.4669 9.28637 17.5627 9.60526ZM17.7384 13.9104C17.5481 14.487 16.9984 15.4073 16.5171 15.9558C15.6262 16.9704 13.6213 18.1768 13.1095 18.0063C12.9545 17.9546 13.9648 16.7305 15.3549 15.2861C16.745 13.8418 17.9278 12.7055 17.9835 12.7609C18.0389 12.8165 17.9287 13.3338 17.7384 13.9104Z" fill="black"/>
</svg>
