<svg width="24" height="17" viewBox="0 0 24 17" fill="none" xmlns="http://www.w3.org/2000/svg">
<path fill-rule="evenodd" clip-rule="evenodd" d="M8.16495 0.472811C6.25633 1.08988 5.0066 1.77351 3.40948 3.07471C1.6946 4.47166 0 6.93302 0 8.02712C0 9.68263 2.98639 13.147 5.61179 14.5371C7.72256 15.6544 9.46095 16.0886 11.8236 16.0886C14.2951 16.0886 16.414 15.5886 18.3882 14.5398C20.9715 13.1671 24 9.68238 24 8.08254C24 6.50869 20.6029 2.65458 18.096 1.38432C15.3377 -0.0133744 10.9222 -0.418653 8.16495 0.472811ZM15.2566 3.2625C17.8421 5.1199 18.5525 8.42423 16.9304 11.0482C14.5875 14.8372 9.4132 14.8389 7.07134 11.0509C5.49031 8.49351 6.13856 5.111 8.53485 3.41491C10.0355 2.35273 10.4479 2.23768 12.4176 2.33244C13.8406 2.40098 14.2384 2.53137 15.2566 3.2625ZM11.0321 4.9858C11.1523 5.88568 11.0835 6.1665 10.6246 6.65294C10.1582 7.14704 9.90136 7.2183 8.9666 7.11314L7.86087 6.98844L7.97221 8.33219C8.14986 10.4734 9.48816 11.8684 11.5556 12.067C13.1171 12.217 14.3325 11.7026 15.2457 10.5053C15.8558 9.70539 15.9588 9.34712 15.9588 8.02291C15.9588 6.84592 15.8365 6.31199 15.4486 5.79215C14.5702 4.61566 13.7112 4.13788 12.2583 4.01739L10.8876 3.90382L11.0321 4.9858Z" fill="black"/>
<path fill-rule="evenodd" clip-rule="evenodd" d="M8.16495 0.472811C6.25633 1.08988 5.0066 1.77351 3.40948 3.07471C1.6946 4.47166 0 6.93302 0 8.02712C0 9.68263 2.98639 13.147 5.61179 14.5371C7.72256 15.6544 9.46095 16.0886 11.8236 16.0886C14.2951 16.0886 16.414 15.5886 18.3882 14.5398C20.9715 13.1671 24 9.68238 24 8.08254C24 6.50869 20.6029 2.65458 18.096 1.38432C15.3377 -0.0133744 10.9222 -0.418653 8.16495 0.472811ZM15.2566 3.2625C17.8421 5.1199 18.5525 8.42423 16.9304 11.0482C14.5875 14.8372 9.4132 14.8389 7.07134 11.0509C5.49031 8.49351 6.13856 5.111 8.53485 3.41491C10.0355 2.35273 10.4479 2.23768 12.4176 2.33244C13.8406 2.40098 14.2384 2.53137 15.2566 3.2625ZM11.0321 4.9858C11.1523 5.88568 11.0835 6.1665 10.6246 6.65294C10.1582 7.14704 9.90136 7.2183 8.9666 7.11314L7.86087 6.98844L7.97221 8.33219C8.14986 10.4734 9.48816 11.8684 11.5556 12.067C13.1171 12.217 14.3325 11.7026 15.2457 10.5053C15.8558 9.70539 15.9588 9.34712 15.9588 8.02291C15.9588 6.84592 15.8365 6.31199 15.4486 5.79215C14.5702 4.61566 13.7112 4.13788 12.2583 4.01739L10.8876 3.90382L11.0321 4.9858Z" fill="black"/>
<path fill-rule="evenodd" clip-rule="evenodd" d="M8.16495 0.472811C6.25633 1.08988 5.0066 1.77351 3.40948 3.07471C1.6946 4.47166 0 6.93302 0 8.02712C0 9.68263 2.98639 13.147 5.61179 14.5371C7.72256 15.6544 9.46095 16.0886 11.8236 16.0886C14.2951 16.0886 16.414 15.5886 18.3882 14.5398C20.9715 13.1671 24 9.68238 24 8.08254C24 6.50869 20.6029 2.65458 18.096 1.38432C15.3377 -0.0133744 10.9222 -0.418653 8.16495 0.472811ZM15.2566 3.2625C17.8421 5.1199 18.5525 8.42423 16.9304 11.0482C14.5875 14.8372 9.4132 14.8389 7.07134 11.0509C5.49031 8.49351 6.13856 5.111 8.53485 3.41491C10.0355 2.35273 10.4479 2.23768 12.4176 2.33244C13.8406 2.40098 14.2384 2.53137 15.2566 3.2625ZM11.0321 4.9858C11.1523 5.88568 11.0835 6.1665 10.6246 6.65294C10.1582 7.14704 9.90136 7.2183 8.9666 7.11314L7.86087 6.98844L7.97221 8.33219C8.14986 10.4734 9.48816 11.8684 11.5556 12.067C13.1171 12.217 14.3325 11.7026 15.2457 10.5053C15.8558 9.70539 15.9588 9.34712 15.9588 8.02291C15.9588 6.84592 15.8365 6.31199 15.4486 5.79215C14.5702 4.61566 13.7112 4.13788 12.2583 4.01739L10.8876 3.90382L11.0321 4.9858Z" fill="black"/>
<path fill-rule="evenodd" clip-rule="evenodd" d="M8.16495 0.472811C6.25633 1.08988 5.0066 1.77351 3.40948 3.07471C1.6946 4.47166 0 6.93302 0 8.02712C0 9.68263 2.98639 13.147 5.61179 14.5371C7.72256 15.6544 9.46095 16.0886 11.8236 16.0886C14.2951 16.0886 16.414 15.5886 18.3882 14.5398C20.9715 13.1671 24 9.68238 24 8.08254C24 6.50869 20.6029 2.65458 18.096 1.38432C15.3377 -0.0133744 10.9222 -0.418653 8.16495 0.472811ZM15.2566 3.2625C17.8421 5.1199 18.5525 8.42423 16.9304 11.0482C14.5875 14.8372 9.4132 14.8389 7.07134 11.0509C5.49031 8.49351 6.13856 5.111 8.53485 3.41491C10.0355 2.35273 10.4479 2.23768 12.4176 2.33244C13.8406 2.40098 14.2384 2.53137 15.2566 3.2625ZM11.0321 4.9858C11.1523 5.88568 11.0835 6.1665 10.6246 6.65294C10.1582 7.14704 9.90136 7.2183 8.9666 7.11314L7.86087 6.98844L7.97221 8.33219C8.14986 10.4734 9.48816 11.8684 11.5556 12.067C13.1171 12.217 14.3325 11.7026 15.2457 10.5053C15.8558 9.70539 15.9588 9.34712 15.9588 8.02291C15.9588 6.84592 15.8365 6.31199 15.4486 5.79215C14.5702 4.61566 13.7112 4.13788 12.2583 4.01739L10.8876 3.90382L11.0321 4.9858Z" fill="black"/>
<path fill-rule="evenodd" clip-rule="evenodd" d="M8.16495 0.472811C6.25633 1.08988 5.0066 1.77351 3.40948 3.07471C1.6946 4.47166 0 6.93302 0 8.02712C0 9.68263 2.98639 13.147 5.61179 14.5371C7.72256 15.6544 9.46095 16.0886 11.8236 16.0886C14.2951 16.0886 16.414 15.5886 18.3882 14.5398C20.9715 13.1671 24 9.68238 24 8.08254C24 6.50869 20.6029 2.65458 18.096 1.38432C15.3377 -0.0133744 10.9222 -0.418653 8.16495 0.472811ZM15.2566 3.2625C17.8421 5.1199 18.5525 8.42423 16.9304 11.0482C14.5875 14.8372 9.4132 14.8389 7.07134 11.0509C5.49031 8.49351 6.13856 5.111 8.53485 3.41491C10.0355 2.35273 10.4479 2.23768 12.4176 2.33244C13.8406 2.40098 14.2384 2.53137 15.2566 3.2625ZM11.0321 4.9858C11.1523 5.88568 11.0835 6.1665 10.6246 6.65294C10.1582 7.14704 9.90136 7.2183 8.9666 7.11314L7.86087 6.98844L7.97221 8.33219C8.14986 10.4734 9.48816 11.8684 11.5556 12.067C13.1171 12.217 14.3325 11.7026 15.2457 10.5053C15.8558 9.70539 15.9588 9.34712 15.9588 8.02291C15.9588 6.84592 15.8365 6.31199 15.4486 5.79215C14.5702 4.61566 13.7112 4.13788 12.2583 4.01739L10.8876 3.90382L11.0321 4.9858Z" fill="black"/>
<path fill-rule="evenodd" clip-rule="evenodd" d="M8.16495 0.472811C6.25633 1.08988 5.0066 1.77351 3.40948 3.07471C1.6946 4.47166 0 6.93302 0 8.02712C0 9.68263 2.98639 13.147 5.61179 14.5371C7.72256 15.6544 9.46095 16.0886 11.8236 16.0886C14.2951 16.0886 16.414 15.5886 18.3882 14.5398C20.9715 13.1671 24 9.68238 24 8.08254C24 6.50869 20.6029 2.65458 18.096 1.38432C15.3377 -0.0133744 10.9222 -0.418653 8.16495 0.472811ZM15.2566 3.2625C17.8421 5.1199 18.5525 8.42423 16.9304 11.0482C14.5875 14.8372 9.4132 14.8389 7.07134 11.0509C5.49031 8.49351 6.13856 5.111 8.53485 3.41491C10.0355 2.35273 10.4479 2.23768 12.4176 2.33244C13.8406 2.40098 14.2384 2.53137 15.2566 3.2625ZM11.0321 4.9858C11.1523 5.88568 11.0835 6.1665 10.6246 6.65294C10.1582 7.14704 9.90136 7.2183 8.9666 7.11314L7.86087 6.98844L7.97221 8.33219C8.14986 10.4734 9.48816 11.8684 11.5556 12.067C13.1171 12.217 14.3325 11.7026 15.2457 10.5053C15.8558 9.70539 15.9588 9.34712 15.9588 8.02291C15.9588 6.84592 15.8365 6.31199 15.4486 5.79215C14.5702 4.61566 13.7112 4.13788 12.2583 4.01739L10.8876 3.90382L11.0321 4.9858Z" fill="black"/>
<path fill-rule="evenodd" clip-rule="evenodd" d="M8.16495 0.472811C6.25633 1.08988 5.0066 1.77351 3.40948 3.07471C1.6946 4.47166 0 6.93302 0 8.02712C0 9.68263 2.98639 13.147 5.61179 14.5371C7.72256 15.6544 9.46095 16.0886 11.8236 16.0886C14.2951 16.0886 16.414 15.5886 18.3882 14.5398C20.9715 13.1671 24 9.68238 24 8.08254C24 6.50869 20.6029 2.65458 18.096 1.38432C15.3377 -0.0133744 10.9222 -0.418653 8.16495 0.472811ZM15.2566 3.2625C17.8421 5.1199 18.5525 8.42423 16.9304 11.0482C14.5875 14.8372 9.4132 14.8389 7.07134 11.0509C5.49031 8.49351 6.13856 5.111 8.53485 3.41491C10.0355 2.35273 10.4479 2.23768 12.4176 2.33244C13.8406 2.40098 14.2384 2.53137 15.2566 3.2625ZM11.0321 4.9858C11.1523 5.88568 11.0835 6.1665 10.6246 6.65294C10.1582 7.14704 9.90136 7.2183 8.9666 7.11314L7.86087 6.98844L7.97221 8.33219C8.14986 10.4734 9.48816 11.8684 11.5556 12.067C13.1171 12.217 14.3325 11.7026 15.2457 10.5053C15.8558 9.70539 15.9588 9.34712 15.9588 8.02291C15.9588 6.84592 15.8365 6.31199 15.4486 5.79215C14.5702 4.61566 13.7112 4.13788 12.2583 4.01739L10.8876 3.90382L11.0321 4.9858Z" fill="black"/>
<path fill-rule="evenodd" clip-rule="evenodd" d="M8.16495 0.472811C6.25633 1.08988 5.0066 1.77351 3.40948 3.07471C1.6946 4.47166 0 6.93302 0 8.02712C0 9.68263 2.98639 13.147 5.61179 14.5371C7.72256 15.6544 9.46095 16.0886 11.8236 16.0886C14.2951 16.0886 16.414 15.5886 18.3882 14.5398C20.9715 13.1671 24 9.68238 24 8.08254C24 6.50869 20.6029 2.65458 18.096 1.38432C15.3377 -0.0133744 10.9222 -0.418653 8.16495 0.472811ZM15.2566 3.2625C17.8421 5.1199 18.5525 8.42423 16.9304 11.0482C14.5875 14.8372 9.4132 14.8389 7.07134 11.0509C5.49031 8.49351 6.13856 5.111 8.53485 3.41491C10.0355 2.35273 10.4479 2.23768 12.4176 2.33244C13.8406 2.40098 14.2384 2.53137 15.2566 3.2625ZM11.0321 4.9858C11.1523 5.88568 11.0835 6.1665 10.6246 6.65294C10.1582 7.14704 9.90136 7.2183 8.9666 7.11314L7.86087 6.98844L7.97221 8.33219C8.14986 10.4734 9.48816 11.8684 11.5556 12.067C13.1171 12.217 14.3325 11.7026 15.2457 10.5053C15.8558 9.70539 15.9588 9.34712 15.9588 8.02291C15.9588 6.84592 15.8365 6.31199 15.4486 5.79215C14.5702 4.61566 13.7112 4.13788 12.2583 4.01739L10.8876 3.90382L11.0321 4.9858Z" fill="black"/>
</svg>
