<svg width="24" height="25" viewBox="0 0 24 25" fill="none" xmlns="http://www.w3.org/2000/svg">
<path fill-rule="evenodd" clip-rule="evenodd" d="M8.2426 0.357495C4.76447 1.68311 2.29309 3.8883 0.872727 6.93256C0.091013 8.60757 0 9.1443 0 12.0754C0 15.0224 0.0891429 15.5414 0.895792 17.2875C1.99356 19.6638 4.42566 22.0597 6.93413 23.2351C8.52468 23.9807 9.09694 24.0754 12 24.0754C14.9031 24.0754 15.4753 23.9807 17.0659 23.2351C19.5743 22.0597 22.0064 19.6638 23.1042 17.2875C23.9109 15.5414 24 15.0224 24 12.0754C24 9.17235 23.9052 8.60009 23.1597 7.00955C21.9815 4.49578 19.5881 2.06742 17.2121 0.976196C15.5748 0.224092 14.8117 0.0735468 12.3117 0.0102741C10.4014 -0.0380376 8.95761 0.0850793 8.2426 0.357495ZM15.591 4.08311C22.5201 7.3097 22.4596 16.9159 15.4903 20.1067C13.248 21.1331 10.752 21.1331 8.50971 20.1067C1.54036 16.9159 1.4799 7.3097 8.40904 4.08311C10.5594 3.08165 13.4406 3.08165 15.591 4.08311ZM10.2358 5.96726C7.23335 6.92913 5.6693 9.04207 5.66493 12.1418C5.65808 16.9237 10.6691 19.8804 15.0016 17.6509C19.402 15.3862 19.4693 8.76373 15.1141 6.57505C13.2589 5.64248 11.8117 5.46233 10.2358 5.96726ZM13.9836 10.0918C15.1144 11.2229 15.1144 12.9279 13.9836 14.059C12.197 15.8453 9.19481 14.6017 9.19481 12.0754C9.19481 11.2357 9.42265 10.6859 10.0164 10.0918C10.6105 9.49807 11.1603 9.27022 12 9.27022C12.8397 9.27022 13.3895 9.49807 13.9836 10.0918Z" fill="black"/>
<path fill-rule="evenodd" clip-rule="evenodd" d="M8.2426 0.357495C4.76447 1.68311 2.29309 3.8883 0.872727 6.93256C0.091013 8.60757 0 9.1443 0 12.0754C0 15.0224 0.0891429 15.5414 0.895792 17.2875C1.99356 19.6638 4.42566 22.0597 6.93413 23.2351C8.52468 23.9807 9.09694 24.0754 12 24.0754C14.9031 24.0754 15.4753 23.9807 17.0659 23.2351C19.5743 22.0597 22.0064 19.6638 23.1042 17.2875C23.9109 15.5414 24 15.0224 24 12.0754C24 9.17235 23.9052 8.60009 23.1597 7.00955C21.9815 4.49578 19.5881 2.06742 17.2121 0.976196C15.5748 0.224092 14.8117 0.0735468 12.3117 0.0102741C10.4014 -0.0380376 8.95761 0.0850793 8.2426 0.357495ZM15.591 4.08311C22.5201 7.3097 22.4596 16.9159 15.4903 20.1067C13.248 21.1331 10.752 21.1331 8.50971 20.1067C1.54036 16.9159 1.4799 7.3097 8.40904 4.08311C10.5594 3.08165 13.4406 3.08165 15.591 4.08311ZM10.2358 5.96726C7.23335 6.92913 5.6693 9.04207 5.66493 12.1418C5.65808 16.9237 10.6691 19.8804 15.0016 17.6509C19.402 15.3862 19.4693 8.76373 15.1141 6.57505C13.2589 5.64248 11.8117 5.46233 10.2358 5.96726ZM13.9836 10.0918C15.1144 11.2229 15.1144 12.9279 13.9836 14.059C12.197 15.8453 9.19481 14.6017 9.19481 12.0754C9.19481 11.2357 9.42265 10.6859 10.0164 10.0918C10.6105 9.49807 11.1603 9.27022 12 9.27022C12.8397 9.27022 13.3895 9.49807 13.9836 10.0918Z" fill="black"/>
<path fill-rule="evenodd" clip-rule="evenodd" d="M8.2426 0.357495C4.76447 1.68311 2.29309 3.8883 0.872727 6.93256C0.091013 8.60757 0 9.1443 0 12.0754C0 15.0224 0.0891429 15.5414 0.895792 17.2875C1.99356 19.6638 4.42566 22.0597 6.93413 23.2351C8.52468 23.9807 9.09694 24.0754 12 24.0754C14.9031 24.0754 15.4753 23.9807 17.0659 23.2351C19.5743 22.0597 22.0064 19.6638 23.1042 17.2875C23.9109 15.5414 24 15.0224 24 12.0754C24 9.17235 23.9052 8.60009 23.1597 7.00955C21.9815 4.49578 19.5881 2.06742 17.2121 0.976196C15.5748 0.224092 14.8117 0.0735468 12.3117 0.0102741C10.4014 -0.0380376 8.95761 0.0850793 8.2426 0.357495ZM15.591 4.08311C22.5201 7.3097 22.4596 16.9159 15.4903 20.1067C13.248 21.1331 10.752 21.1331 8.50971 20.1067C1.54036 16.9159 1.4799 7.3097 8.40904 4.08311C10.5594 3.08165 13.4406 3.08165 15.591 4.08311ZM10.2358 5.96726C7.23335 6.92913 5.6693 9.04207 5.66493 12.1418C5.65808 16.9237 10.6691 19.8804 15.0016 17.6509C19.402 15.3862 19.4693 8.76373 15.1141 6.57505C13.2589 5.64248 11.8117 5.46233 10.2358 5.96726ZM13.9836 10.0918C15.1144 11.2229 15.1144 12.9279 13.9836 14.059C12.197 15.8453 9.19481 14.6017 9.19481 12.0754C9.19481 11.2357 9.42265 10.6859 10.0164 10.0918C10.6105 9.49807 11.1603 9.27022 12 9.27022C12.8397 9.27022 13.3895 9.49807 13.9836 10.0918Z" fill="black"/>
<path fill-rule="evenodd" clip-rule="evenodd" d="M8.2426 0.357495C4.76447 1.68311 2.29309 3.8883 0.872727 6.93256C0.091013 8.60757 0 9.1443 0 12.0754C0 15.0224 0.0891429 15.5414 0.895792 17.2875C1.99356 19.6638 4.42566 22.0597 6.93413 23.2351C8.52468 23.9807 9.09694 24.0754 12 24.0754C14.9031 24.0754 15.4753 23.9807 17.0659 23.2351C19.5743 22.0597 22.0064 19.6638 23.1042 17.2875C23.9109 15.5414 24 15.0224 24 12.0754C24 9.17235 23.9052 8.60009 23.1597 7.00955C21.9815 4.49578 19.5881 2.06742 17.2121 0.976196C15.5748 0.224092 14.8117 0.0735468 12.3117 0.0102741C10.4014 -0.0380376 8.95761 0.0850793 8.2426 0.357495ZM15.591 4.08311C22.5201 7.3097 22.4596 16.9159 15.4903 20.1067C13.248 21.1331 10.752 21.1331 8.50971 20.1067C1.54036 16.9159 1.4799 7.3097 8.40904 4.08311C10.5594 3.08165 13.4406 3.08165 15.591 4.08311ZM10.2358 5.96726C7.23335 6.92913 5.6693 9.04207 5.66493 12.1418C5.65808 16.9237 10.6691 19.8804 15.0016 17.6509C19.402 15.3862 19.4693 8.76373 15.1141 6.57505C13.2589 5.64248 11.8117 5.46233 10.2358 5.96726ZM13.9836 10.0918C15.1144 11.2229 15.1144 12.9279 13.9836 14.059C12.197 15.8453 9.19481 14.6017 9.19481 12.0754C9.19481 11.2357 9.42265 10.6859 10.0164 10.0918C10.6105 9.49807 11.1603 9.27022 12 9.27022C12.8397 9.27022 13.3895 9.49807 13.9836 10.0918Z" fill="black"/>
<path fill-rule="evenodd" clip-rule="evenodd" d="M8.2426 0.357495C4.76447 1.68311 2.29309 3.8883 0.872727 6.93256C0.091013 8.60757 0 9.1443 0 12.0754C0 15.0224 0.0891429 15.5414 0.895792 17.2875C1.99356 19.6638 4.42566 22.0597 6.93413 23.2351C8.52468 23.9807 9.09694 24.0754 12 24.0754C14.9031 24.0754 15.4753 23.9807 17.0659 23.2351C19.5743 22.0597 22.0064 19.6638 23.1042 17.2875C23.9109 15.5414 24 15.0224 24 12.0754C24 9.17235 23.9052 8.60009 23.1597 7.00955C21.9815 4.49578 19.5881 2.06742 17.2121 0.976196C15.5748 0.224092 14.8117 0.0735468 12.3117 0.0102741C10.4014 -0.0380376 8.95761 0.0850793 8.2426 0.357495ZM15.591 4.08311C22.5201 7.3097 22.4596 16.9159 15.4903 20.1067C13.248 21.1331 10.752 21.1331 8.50971 20.1067C1.54036 16.9159 1.4799 7.3097 8.40904 4.08311C10.5594 3.08165 13.4406 3.08165 15.591 4.08311ZM10.2358 5.96726C7.23335 6.92913 5.6693 9.04207 5.66493 12.1418C5.65808 16.9237 10.6691 19.8804 15.0016 17.6509C19.402 15.3862 19.4693 8.76373 15.1141 6.57505C13.2589 5.64248 11.8117 5.46233 10.2358 5.96726ZM13.9836 10.0918C15.1144 11.2229 15.1144 12.9279 13.9836 14.059C12.197 15.8453 9.19481 14.6017 9.19481 12.0754C9.19481 11.2357 9.42265 10.6859 10.0164 10.0918C10.6105 9.49807 11.1603 9.27022 12 9.27022C12.8397 9.27022 13.3895 9.49807 13.9836 10.0918Z" fill="black"/>
<path fill-rule="evenodd" clip-rule="evenodd" d="M8.2426 0.357495C4.76447 1.68311 2.29309 3.8883 0.872727 6.93256C0.091013 8.60757 0 9.1443 0 12.0754C0 15.0224 0.0891429 15.5414 0.895792 17.2875C1.99356 19.6638 4.42566 22.0597 6.93413 23.2351C8.52468 23.9807 9.09694 24.0754 12 24.0754C14.9031 24.0754 15.4753 23.9807 17.0659 23.2351C19.5743 22.0597 22.0064 19.6638 23.1042 17.2875C23.9109 15.5414 24 15.0224 24 12.0754C24 9.17235 23.9052 8.60009 23.1597 7.00955C21.9815 4.49578 19.5881 2.06742 17.2121 0.976196C15.5748 0.224092 14.8117 0.0735468 12.3117 0.0102741C10.4014 -0.0380376 8.95761 0.0850793 8.2426 0.357495ZM15.591 4.08311C22.5201 7.3097 22.4596 16.9159 15.4903 20.1067C13.248 21.1331 10.752 21.1331 8.50971 20.1067C1.54036 16.9159 1.4799 7.3097 8.40904 4.08311C10.5594 3.08165 13.4406 3.08165 15.591 4.08311ZM10.2358 5.96726C7.23335 6.92913 5.6693 9.04207 5.66493 12.1418C5.65808 16.9237 10.6691 19.8804 15.0016 17.6509C19.402 15.3862 19.4693 8.76373 15.1141 6.57505C13.2589 5.64248 11.8117 5.46233 10.2358 5.96726ZM13.9836 10.0918C15.1144 11.2229 15.1144 12.9279 13.9836 14.059C12.197 15.8453 9.19481 14.6017 9.19481 12.0754C9.19481 11.2357 9.42265 10.6859 10.0164 10.0918C10.6105 9.49807 11.1603 9.27022 12 9.27022C12.8397 9.27022 13.3895 9.49807 13.9836 10.0918Z" fill="black"/>
<path fill-rule="evenodd" clip-rule="evenodd" d="M8.2426 0.357495C4.76447 1.68311 2.29309 3.8883 0.872727 6.93256C0.091013 8.60757 0 9.1443 0 12.0754C0 15.0224 0.0891429 15.5414 0.895792 17.2875C1.99356 19.6638 4.42566 22.0597 6.93413 23.2351C8.52468 23.9807 9.09694 24.0754 12 24.0754C14.9031 24.0754 15.4753 23.9807 17.0659 23.2351C19.5743 22.0597 22.0064 19.6638 23.1042 17.2875C23.9109 15.5414 24 15.0224 24 12.0754C24 9.17235 23.9052 8.60009 23.1597 7.00955C21.9815 4.49578 19.5881 2.06742 17.2121 0.976196C15.5748 0.224092 14.8117 0.0735468 12.3117 0.0102741C10.4014 -0.0380376 8.95761 0.0850793 8.2426 0.357495ZM15.591 4.08311C22.5201 7.3097 22.4596 16.9159 15.4903 20.1067C13.248 21.1331 10.752 21.1331 8.50971 20.1067C1.54036 16.9159 1.4799 7.3097 8.40904 4.08311C10.5594 3.08165 13.4406 3.08165 15.591 4.08311ZM10.2358 5.96726C7.23335 6.92913 5.6693 9.04207 5.66493 12.1418C5.65808 16.9237 10.6691 19.8804 15.0016 17.6509C19.402 15.3862 19.4693 8.76373 15.1141 6.57505C13.2589 5.64248 11.8117 5.46233 10.2358 5.96726ZM13.9836 10.0918C15.1144 11.2229 15.1144 12.9279 13.9836 14.059C12.197 15.8453 9.19481 14.6017 9.19481 12.0754C9.19481 11.2357 9.42265 10.6859 10.0164 10.0918C10.6105 9.49807 11.1603 9.27022 12 9.27022C12.8397 9.27022 13.3895 9.49807 13.9836 10.0918Z" fill="black"/>
<path fill-rule="evenodd" clip-rule="evenodd" d="M8.2426 0.357495C4.76447 1.68311 2.29309 3.8883 0.872727 6.93256C0.091013 8.60757 0 9.1443 0 12.0754C0 15.0224 0.0891429 15.5414 0.895792 17.2875C1.99356 19.6638 4.42566 22.0597 6.93413 23.2351C8.52468 23.9807 9.09694 24.0754 12 24.0754C14.9031 24.0754 15.4753 23.9807 17.0659 23.2351C19.5743 22.0597 22.0064 19.6638 23.1042 17.2875C23.9109 15.5414 24 15.0224 24 12.0754C24 9.17235 23.9052 8.60009 23.1597 7.00955C21.9815 4.49578 19.5881 2.06742 17.2121 0.976196C15.5748 0.224092 14.8117 0.0735468 12.3117 0.0102741C10.4014 -0.0380376 8.95761 0.0850793 8.2426 0.357495ZM15.591 4.08311C22.5201 7.3097 22.4596 16.9159 15.4903 20.1067C13.248 21.1331 10.752 21.1331 8.50971 20.1067C1.54036 16.9159 1.4799 7.3097 8.40904 4.08311C10.5594 3.08165 13.4406 3.08165 15.591 4.08311ZM10.2358 5.96726C7.23335 6.92913 5.6693 9.04207 5.66493 12.1418C5.65808 16.9237 10.6691 19.8804 15.0016 17.6509C19.402 15.3862 19.4693 8.76373 15.1141 6.57505C13.2589 5.64248 11.8117 5.46233 10.2358 5.96726ZM13.9836 10.0918C15.1144 11.2229 15.1144 12.9279 13.9836 14.059C12.197 15.8453 9.19481 14.6017 9.19481 12.0754C9.19481 11.2357 9.42265 10.6859 10.0164 10.0918C10.6105 9.49807 11.1603 9.27022 12 9.27022C12.8397 9.27022 13.3895 9.49807 13.9836 10.0918Z" fill="black"/>
</svg>
