<svg width="24" height="19" viewBox="0 0 24 19" fill="none" xmlns="http://www.w3.org/2000/svg">
<path fill-rule="evenodd" clip-rule="evenodd" d="M7.38339 0.474232C5.67425 1.06473 4.15612 2.24208 2.33791 4.38724C0.349832 6.73255 0.0132238 7.42586 0.000437838 9.20258C-0.0149574 11.341 0.358443 11.9729 3.87066 15.7529C4.39096 16.3128 5.58005 17.1348 6.5129 17.5794C8.09079 18.3312 8.40913 18.3876 11.0793 18.3876C13.69 18.3876 14.0965 18.3197 15.5732 17.6376C16.6117 17.158 17.6727 16.3846 18.5171 15.4919L19.8369 14.0962L21.1431 14.611C23.1596 15.4058 23.3856 15.3354 23.7131 13.8084C24.2237 11.4278 24.1726 11.2942 22.5605 10.7859L21.1254 10.3337L21.105 9.01131C21.0479 5.2713 18.3164 1.81571 14.4008 0.529029C12.3193 -0.154626 9.27231 -0.178633 7.38339 0.474232ZM14.2687 3.34637C17.7997 5.14944 19.13 8.97008 17.3525 12.2036C15.5056 15.5632 11.1482 16.8206 7.60467 15.017C6.47663 14.4427 5.89344 13.9321 4.95589 12.6976C4.6579 12.3051 4.65712 12.2394 4.95094 12.3062C5.55109 12.4421 6.12254 10.9357 6.10819 9.25476C6.0941 7.55893 5.41253 5.83597 4.88492 6.16214C4.71922 6.26442 4.84943 5.97505 5.1743 5.51893C5.88744 4.51719 7.65633 3.26208 8.87986 2.8892C10.2678 2.46649 12.9995 2.6982 14.2687 3.34637ZM8.6004 3.76334C7.95458 4.10204 7.07862 4.74525 6.65381 5.19249C5.9198 5.96513 5.89918 6.04759 6.23814 6.84736C6.79733 8.16718 6.87456 10.2048 6.40749 11.3224C5.93676 12.4489 6.08784 12.8954 7.27954 13.8979C9.20995 15.5222 12.3762 15.8236 14.5686 14.5914C15.9614 13.8086 17.1685 12.0695 17.5365 10.3152C18.5408 5.52623 12.9928 1.45823 8.6004 3.76334ZM4.39175 7.69071C4.14125 8.59772 4.22214 10.4128 4.56918 11.6716C4.63807 11.921 4.52169 11.7728 4.3106 11.3423C3.84978 10.4016 3.79394 8.47273 4.19474 7.32331C4.59423 6.17753 4.73618 6.44264 4.39175 7.69071Z" fill="white"/>
<path fill-rule="evenodd" clip-rule="evenodd" d="M7.38339 0.474232C5.67425 1.06473 4.15612 2.24208 2.33791 4.38724C0.349832 6.73255 0.0132238 7.42586 0.000437838 9.20258C-0.0149574 11.341 0.358443 11.9729 3.87066 15.7529C4.39096 16.3128 5.58005 17.1348 6.5129 17.5794C8.09079 18.3312 8.40913 18.3876 11.0793 18.3876C13.69 18.3876 14.0965 18.3197 15.5732 17.6376C16.6117 17.158 17.6727 16.3846 18.5171 15.4919L19.8369 14.0962L21.1431 14.611C23.1596 15.4058 23.3856 15.3354 23.7131 13.8084C24.2237 11.4278 24.1726 11.2942 22.5605 10.7859L21.1254 10.3337L21.105 9.01131C21.0479 5.2713 18.3164 1.81571 14.4008 0.529029C12.3193 -0.154626 9.27231 -0.178633 7.38339 0.474232ZM14.2687 3.34637C17.7997 5.14944 19.13 8.97008 17.3525 12.2036C15.5056 15.5632 11.1482 16.8206 7.60467 15.017C6.47663 14.4427 5.89344 13.9321 4.95589 12.6976C4.6579 12.3051 4.65712 12.2394 4.95094 12.3062C5.55109 12.4421 6.12254 10.9357 6.10819 9.25476C6.0941 7.55893 5.41253 5.83597 4.88492 6.16214C4.71922 6.26442 4.84943 5.97505 5.1743 5.51893C5.88744 4.51719 7.65633 3.26208 8.87986 2.8892C10.2678 2.46649 12.9995 2.6982 14.2687 3.34637ZM8.6004 3.76334C7.95458 4.10204 7.07862 4.74525 6.65381 5.19249C5.9198 5.96513 5.89918 6.04759 6.23814 6.84736C6.79733 8.16718 6.87456 10.2048 6.40749 11.3224C5.93676 12.4489 6.08784 12.8954 7.27954 13.8979C9.20995 15.5222 12.3762 15.8236 14.5686 14.5914C15.9614 13.8086 17.1685 12.0695 17.5365 10.3152C18.5408 5.52623 12.9928 1.45823 8.6004 3.76334ZM4.39175 7.69071C4.14125 8.59772 4.22214 10.4128 4.56918 11.6716C4.63807 11.921 4.52169 11.7728 4.3106 11.3423C3.84978 10.4016 3.79394 8.47273 4.19474 7.32331C4.59423 6.17753 4.73618 6.44264 4.39175 7.69071Z" fill="white"/>
<path fill-rule="evenodd" clip-rule="evenodd" d="M7.38339 0.474232C5.67425 1.06473 4.15612 2.24208 2.33791 4.38724C0.349832 6.73255 0.0132238 7.42586 0.000437838 9.20258C-0.0149574 11.341 0.358443 11.9729 3.87066 15.7529C4.39096 16.3128 5.58005 17.1348 6.5129 17.5794C8.09079 18.3312 8.40913 18.3876 11.0793 18.3876C13.69 18.3876 14.0965 18.3197 15.5732 17.6376C16.6117 17.158 17.6727 16.3846 18.5171 15.4919L19.8369 14.0962L21.1431 14.611C23.1596 15.4058 23.3856 15.3354 23.7131 13.8084C24.2237 11.4278 24.1726 11.2942 22.5605 10.7859L21.1254 10.3337L21.105 9.01131C21.0479 5.2713 18.3164 1.81571 14.4008 0.529029C12.3193 -0.154626 9.27231 -0.178633 7.38339 0.474232ZM14.2687 3.34637C17.7997 5.14944 19.13 8.97008 17.3525 12.2036C15.5056 15.5632 11.1482 16.8206 7.60467 15.017C6.47663 14.4427 5.89344 13.9321 4.95589 12.6976C4.6579 12.3051 4.65712 12.2394 4.95094 12.3062C5.55109 12.4421 6.12254 10.9357 6.10819 9.25476C6.0941 7.55893 5.41253 5.83597 4.88492 6.16214C4.71922 6.26442 4.84943 5.97505 5.1743 5.51893C5.88744 4.51719 7.65633 3.26208 8.87986 2.8892C10.2678 2.46649 12.9995 2.6982 14.2687 3.34637ZM8.6004 3.76334C7.95458 4.10204 7.07862 4.74525 6.65381 5.19249C5.9198 5.96513 5.89918 6.04759 6.23814 6.84736C6.79733 8.16718 6.87456 10.2048 6.40749 11.3224C5.93676 12.4489 6.08784 12.8954 7.27954 13.8979C9.20995 15.5222 12.3762 15.8236 14.5686 14.5914C15.9614 13.8086 17.1685 12.0695 17.5365 10.3152C18.5408 5.52623 12.9928 1.45823 8.6004 3.76334ZM4.39175 7.69071C4.14125 8.59772 4.22214 10.4128 4.56918 11.6716C4.63807 11.921 4.52169 11.7728 4.3106 11.3423C3.84978 10.4016 3.79394 8.47273 4.19474 7.32331C4.59423 6.17753 4.73618 6.44264 4.39175 7.69071Z" fill="white"/>
<path fill-rule="evenodd" clip-rule="evenodd" d="M7.38339 0.474232C5.67425 1.06473 4.15612 2.24208 2.33791 4.38724C0.349832 6.73255 0.0132238 7.42586 0.000437838 9.20258C-0.0149574 11.341 0.358443 11.9729 3.87066 15.7529C4.39096 16.3128 5.58005 17.1348 6.5129 17.5794C8.09079 18.3312 8.40913 18.3876 11.0793 18.3876C13.69 18.3876 14.0965 18.3197 15.5732 17.6376C16.6117 17.158 17.6727 16.3846 18.5171 15.4919L19.8369 14.0962L21.1431 14.611C23.1596 15.4058 23.3856 15.3354 23.7131 13.8084C24.2237 11.4278 24.1726 11.2942 22.5605 10.7859L21.1254 10.3337L21.105 9.01131C21.0479 5.2713 18.3164 1.81571 14.4008 0.529029C12.3193 -0.154626 9.27231 -0.178633 7.38339 0.474232ZM14.2687 3.34637C17.7997 5.14944 19.13 8.97008 17.3525 12.2036C15.5056 15.5632 11.1482 16.8206 7.60467 15.017C6.47663 14.4427 5.89344 13.9321 4.95589 12.6976C4.6579 12.3051 4.65712 12.2394 4.95094 12.3062C5.55109 12.4421 6.12254 10.9357 6.10819 9.25476C6.0941 7.55893 5.41253 5.83597 4.88492 6.16214C4.71922 6.26442 4.84943 5.97505 5.1743 5.51893C5.88744 4.51719 7.65633 3.26208 8.87986 2.8892C10.2678 2.46649 12.9995 2.6982 14.2687 3.34637ZM8.6004 3.76334C7.95458 4.10204 7.07862 4.74525 6.65381 5.19249C5.9198 5.96513 5.89918 6.04759 6.23814 6.84736C6.79733 8.16718 6.87456 10.2048 6.40749 11.3224C5.93676 12.4489 6.08784 12.8954 7.27954 13.8979C9.20995 15.5222 12.3762 15.8236 14.5686 14.5914C15.9614 13.8086 17.1685 12.0695 17.5365 10.3152C18.5408 5.52623 12.9928 1.45823 8.6004 3.76334ZM4.39175 7.69071C4.14125 8.59772 4.22214 10.4128 4.56918 11.6716C4.63807 11.921 4.52169 11.7728 4.3106 11.3423C3.84978 10.4016 3.79394 8.47273 4.19474 7.32331C4.59423 6.17753 4.73618 6.44264 4.39175 7.69071Z" fill="white"/>
<path fill-rule="evenodd" clip-rule="evenodd" d="M7.38339 0.474232C5.67425 1.06473 4.15612 2.24208 2.33791 4.38724C0.349832 6.73255 0.0132238 7.42586 0.000437838 9.20258C-0.0149574 11.341 0.358443 11.9729 3.87066 15.7529C4.39096 16.3128 5.58005 17.1348 6.5129 17.5794C8.09079 18.3312 8.40913 18.3876 11.0793 18.3876C13.69 18.3876 14.0965 18.3197 15.5732 17.6376C16.6117 17.158 17.6727 16.3846 18.5171 15.4919L19.8369 14.0962L21.1431 14.611C23.1596 15.4058 23.3856 15.3354 23.7131 13.8084C24.2237 11.4278 24.1726 11.2942 22.5605 10.7859L21.1254 10.3337L21.105 9.01131C21.0479 5.2713 18.3164 1.81571 14.4008 0.529029C12.3193 -0.154626 9.27231 -0.178633 7.38339 0.474232ZM14.2687 3.34637C17.7997 5.14944 19.13 8.97008 17.3525 12.2036C15.5056 15.5632 11.1482 16.8206 7.60467 15.017C6.47663 14.4427 5.89344 13.9321 4.95589 12.6976C4.6579 12.3051 4.65712 12.2394 4.95094 12.3062C5.55109 12.4421 6.12254 10.9357 6.10819 9.25476C6.0941 7.55893 5.41253 5.83597 4.88492 6.16214C4.71922 6.26442 4.84943 5.97505 5.1743 5.51893C5.88744 4.51719 7.65633 3.26208 8.87986 2.8892C10.2678 2.46649 12.9995 2.6982 14.2687 3.34637ZM8.6004 3.76334C7.95458 4.10204 7.07862 4.74525 6.65381 5.19249C5.9198 5.96513 5.89918 6.04759 6.23814 6.84736C6.79733 8.16718 6.87456 10.2048 6.40749 11.3224C5.93676 12.4489 6.08784 12.8954 7.27954 13.8979C9.20995 15.5222 12.3762 15.8236 14.5686 14.5914C15.9614 13.8086 17.1685 12.0695 17.5365 10.3152C18.5408 5.52623 12.9928 1.45823 8.6004 3.76334ZM4.39175 7.69071C4.14125 8.59772 4.22214 10.4128 4.56918 11.6716C4.63807 11.921 4.52169 11.7728 4.3106 11.3423C3.84978 10.4016 3.79394 8.47273 4.19474 7.32331C4.59423 6.17753 4.73618 6.44264 4.39175 7.69071Z" fill="white"/>
<path fill-rule="evenodd" clip-rule="evenodd" d="M7.38339 0.474232C5.67425 1.06473 4.15612 2.24208 2.33791 4.38724C0.349832 6.73255 0.0132238 7.42586 0.000437838 9.20258C-0.0149574 11.341 0.358443 11.9729 3.87066 15.7529C4.39096 16.3128 5.58005 17.1348 6.5129 17.5794C8.09079 18.3312 8.40913 18.3876 11.0793 18.3876C13.69 18.3876 14.0965 18.3197 15.5732 17.6376C16.6117 17.158 17.6727 16.3846 18.5171 15.4919L19.8369 14.0962L21.1431 14.611C23.1596 15.4058 23.3856 15.3354 23.7131 13.8084C24.2237 11.4278 24.1726 11.2942 22.5605 10.7859L21.1254 10.3337L21.105 9.01131C21.0479 5.2713 18.3164 1.81571 14.4008 0.529029C12.3193 -0.154626 9.27231 -0.178633 7.38339 0.474232ZM14.2687 3.34637C17.7997 5.14944 19.13 8.97008 17.3525 12.2036C15.5056 15.5632 11.1482 16.8206 7.60467 15.017C6.47663 14.4427 5.89344 13.9321 4.95589 12.6976C4.6579 12.3051 4.65712 12.2394 4.95094 12.3062C5.55109 12.4421 6.12254 10.9357 6.10819 9.25476C6.0941 7.55893 5.41253 5.83597 4.88492 6.16214C4.71922 6.26442 4.84943 5.97505 5.1743 5.51893C5.88744 4.51719 7.65633 3.26208 8.87986 2.8892C10.2678 2.46649 12.9995 2.6982 14.2687 3.34637ZM8.6004 3.76334C7.95458 4.10204 7.07862 4.74525 6.65381 5.19249C5.9198 5.96513 5.89918 6.04759 6.23814 6.84736C6.79733 8.16718 6.87456 10.2048 6.40749 11.3224C5.93676 12.4489 6.08784 12.8954 7.27954 13.8979C9.20995 15.5222 12.3762 15.8236 14.5686 14.5914C15.9614 13.8086 17.1685 12.0695 17.5365 10.3152C18.5408 5.52623 12.9928 1.45823 8.6004 3.76334ZM4.39175 7.69071C4.14125 8.59772 4.22214 10.4128 4.56918 11.6716C4.63807 11.921 4.52169 11.7728 4.3106 11.3423C3.84978 10.4016 3.79394 8.47273 4.19474 7.32331C4.59423 6.17753 4.73618 6.44264 4.39175 7.69071Z" fill="white"/>
<path fill-rule="evenodd" clip-rule="evenodd" d="M7.38339 0.474232C5.67425 1.06473 4.15612 2.24208 2.33791 4.38724C0.349832 6.73255 0.0132238 7.42586 0.000437838 9.20258C-0.0149574 11.341 0.358443 11.9729 3.87066 15.7529C4.39096 16.3128 5.58005 17.1348 6.5129 17.5794C8.09079 18.3312 8.40913 18.3876 11.0793 18.3876C13.69 18.3876 14.0965 18.3197 15.5732 17.6376C16.6117 17.158 17.6727 16.3846 18.5171 15.4919L19.8369 14.0962L21.1431 14.611C23.1596 15.4058 23.3856 15.3354 23.7131 13.8084C24.2237 11.4278 24.1726 11.2942 22.5605 10.7859L21.1254 10.3337L21.105 9.01131C21.0479 5.2713 18.3164 1.81571 14.4008 0.529029C12.3193 -0.154626 9.27231 -0.178633 7.38339 0.474232ZM14.2687 3.34637C17.7997 5.14944 19.13 8.97008 17.3525 12.2036C15.5056 15.5632 11.1482 16.8206 7.60467 15.017C6.47663 14.4427 5.89344 13.9321 4.95589 12.6976C4.6579 12.3051 4.65712 12.2394 4.95094 12.3062C5.55109 12.4421 6.12254 10.9357 6.10819 9.25476C6.0941 7.55893 5.41253 5.83597 4.88492 6.16214C4.71922 6.26442 4.84943 5.97505 5.1743 5.51893C5.88744 4.51719 7.65633 3.26208 8.87986 2.8892C10.2678 2.46649 12.9995 2.6982 14.2687 3.34637ZM8.6004 3.76334C7.95458 4.10204 7.07862 4.74525 6.65381 5.19249C5.9198 5.96513 5.89918 6.04759 6.23814 6.84736C6.79733 8.16718 6.87456 10.2048 6.40749 11.3224C5.93676 12.4489 6.08784 12.8954 7.27954 13.8979C9.20995 15.5222 12.3762 15.8236 14.5686 14.5914C15.9614 13.8086 17.1685 12.0695 17.5365 10.3152C18.5408 5.52623 12.9928 1.45823 8.6004 3.76334ZM4.39175 7.69071C4.14125 8.59772 4.22214 10.4128 4.56918 11.6716C4.63807 11.921 4.52169 11.7728 4.3106 11.3423C3.84978 10.4016 3.79394 8.47273 4.19474 7.32331C4.59423 6.17753 4.73618 6.44264 4.39175 7.69071Z" fill="white"/>
<path fill-rule="evenodd" clip-rule="evenodd" d="M7.38339 0.474232C5.67425 1.06473 4.15612 2.24208 2.33791 4.38724C0.349832 6.73255 0.0132238 7.42586 0.000437838 9.20258C-0.0149574 11.341 0.358443 11.9729 3.87066 15.7529C4.39096 16.3128 5.58005 17.1348 6.5129 17.5794C8.09079 18.3312 8.40913 18.3876 11.0793 18.3876C13.69 18.3876 14.0965 18.3197 15.5732 17.6376C16.6117 17.158 17.6727 16.3846 18.5171 15.4919L19.8369 14.0962L21.1431 14.611C23.1596 15.4058 23.3856 15.3354 23.7131 13.8084C24.2237 11.4278 24.1726 11.2942 22.5605 10.7859L21.1254 10.3337L21.105 9.01131C21.0479 5.2713 18.3164 1.81571 14.4008 0.529029C12.3193 -0.154626 9.27231 -0.178633 7.38339 0.474232ZM14.2687 3.34637C17.7997 5.14944 19.13 8.97008 17.3525 12.2036C15.5056 15.5632 11.1482 16.8206 7.60467 15.017C6.47663 14.4427 5.89344 13.9321 4.95589 12.6976C4.6579 12.3051 4.65712 12.2394 4.95094 12.3062C5.55109 12.4421 6.12254 10.9357 6.10819 9.25476C6.0941 7.55893 5.41253 5.83597 4.88492 6.16214C4.71922 6.26442 4.84943 5.97505 5.1743 5.51893C5.88744 4.51719 7.65633 3.26208 8.87986 2.8892C10.2678 2.46649 12.9995 2.6982 14.2687 3.34637ZM8.6004 3.76334C7.95458 4.10204 7.07862 4.74525 6.65381 5.19249C5.9198 5.96513 5.89918 6.04759 6.23814 6.84736C6.79733 8.16718 6.87456 10.2048 6.40749 11.3224C5.93676 12.4489 6.08784 12.8954 7.27954 13.8979C9.20995 15.5222 12.3762 15.8236 14.5686 14.5914C15.9614 13.8086 17.1685 12.0695 17.5365 10.3152C18.5408 5.52623 12.9928 1.45823 8.6004 3.76334ZM4.39175 7.69071C4.14125 8.59772 4.22214 10.4128 4.56918 11.6716C4.63807 11.921 4.52169 11.7728 4.3106 11.3423C3.84978 10.4016 3.79394 8.47273 4.19474 7.32331C4.59423 6.17753 4.73618 6.44264 4.39175 7.69071Z" fill="white"/>
</svg>
